<svg width="32px" height="32px" viewBox="0 0 32 32" version="1.1" xmlns="http://www.w3.org/2000/svg" xmlns:xlink="http://www.w3.org/1999/xlink">
                                <!-- Generator: Sketch 51 (57462) - http://www.bohemiancoding.com/sketch -->
                                <title>follow-tab</title>
                                <desc>Created with Sketch.</desc>
                                <defs/>
                                <g id="Page-1" stroke="none" stroke-width="1" fill="none" fill-rule="evenodd">
                                    <g id="Homepage---desktop" transform="translate(-188.000000, -1097.000000)">
                                        <g id="Group-31" transform="translate(188.000000, 1097.000000)" fill="#1E1F44">
                                            <g id="Group-4" transform="translate(5.000000, 5.000000)">
                                                <path d="M17.8111111,16.6300926 L17.8111111,15.1300926 L16.8111111,15.1300926 L16.8111111,16.6300926 L15.3111111,16.6300926 L15.3111111,17.6300926 L16.8111111,17.6300926 L16.8111111,19.1300926 L17.8111111,19.1300926 L17.8111111,17.6300926 L19.3111111,17.6300926 L19.3111111,16.6300926 L17.8111111,16.6300926 Z M11.6083754,19.000463 L0.2,19.000463 C0.452777778,14.7949074 5.92546296,15.4074074 6.73657407,13.2259259 C6.80416667,12.4800926 6.7787037,11.9592593 6.7787037,11.2773148 C6.43981481,11.099537 5.81018519,9.96898148 5.70833333,9.01435185 C5.44259259,8.99259259 5.02407407,8.73333333 4.90092593,7.70972222 C4.83518519,7.16018519 5.09814815,6.85092593 5.25787037,6.7537037 C4.35925926,3.29537037 4.8537037,0.275462963 8.95277778,0.2 C9.97731481,0.2 10.7657407,0.473611111 11.0736111,1.01435185 C14.0652778,1.43055556 13.1671296,5.4537037 12.7347222,6.75416667 C12.8949074,6.85138889 13.1578704,7.16064815 13.0916667,7.71018519 C12.9685185,8.7337963 12.55,8.99305556 12.2842593,9.01481481 C12.1819444,9.96944444 11.5763889,11.1 11.2384259,11.2777778 C11.2384259,11.9592593 11.2125,12.4800926 11.2800926,13.2263889 C11.3648716,13.454293 11.7322331,13.9124828 12.0552373,14.2336979 C11.5810096,15.0924117 11.3111111,16.0797331 11.3111111,17.1300926 C11.3111111,17.7831734 11.4154529,18.4118839 11.6083754,19.000463 Z M17.3111111,22.1300926 C14.5496874,22.1300926 12.3111111,19.8915163 12.3111111,17.1300926 C12.3111111,14.3686688 14.5496874,12.1300926 17.3111111,12.1300926 C20.0725349,12.1300926 22.3111111,14.3686688 22.3111111,17.1300926 C22.3111111,19.8915163 20.0725349,22.1300926 17.3111111,22.1300926 Z" id="Combined-Shape"/>
                                            </g>
                                        </g>
                                    </g>
                                </g>
                            </svg>