<svg width="288" height="232" xmlns="http://www.w3.org/2000/svg" xmlns:xlink="http://www.w3.org/1999/xlink">
    <defs>
        <rect id="a" width="169" height="239.014" rx="2"/>
        <linearGradient x1="100%" y1="100%" x2="0%" y2="0%" id="c">
            <stop stop-color="#3D41DA" offset="0%"/>
            <stop stop-color="#0088F7" offset="100%"/>
        </linearGradient>
        <linearGradient x1="86.11%" y1="38.676%" x2="77.769%" y2="48.652%" id="d">
            <stop stop-color="#FF6550" stop-opacity=".987" offset="0%"/>
            <stop stop-color="#FFE59E" stop-opacity=".987" offset="36.82%"/>
            <stop stop-color="#FFF" offset="100%"/>
        </linearGradient>
        <linearGradient x1="100%" y1="62.116%" x2="0%" y2="37.884%" id="e">
            <stop stop-color="#0F529B" offset="0%"/>
            <stop stop-color="#1E1F44" offset="100%"/>
        </linearGradient>
        <linearGradient x1="100%" y1="62.115%" x2="0%" y2="37.885%" id="f">
            <stop stop-color="#0F529B" offset="0%"/>
            <stop stop-color="#1E1F44" offset="100%"/>
        </linearGradient>
        <path d="M4.957 0a6.05 6.05 0 0 1 5.932 4.86l5.31 26.483a1.354 1.354 0 0 1-1.328 1.62c-.98 0-1.845-.643-2.128-1.582L9.452 20.437a5.556 5.556 0 0 0-5.321-3.956A4.13 4.13 0 0 1 0 12.351V4.957A4.957 4.957 0 0 1 4.957 0z" id="g"/>
        <linearGradient x1="0%" y1="0%" y2="100%" id="i">
            <stop stop-color="#FF5050" offset="0%"/>
            <stop stop-color="#FF6550" offset="100%"/>
        </linearGradient>
        <path d="M4.925 9.212C7.972 3.071 10.39 0 12.177 0c1.788 0 4.205 3.07 7.252 9.212a46.66 46.66 0 0 1 4.556 26.089l-4.667 40.444a5.205 5.205 0 0 1-5.175 4.602h-3.931a5.205 5.205 0 0 1-5.175-4.602L.369 35.301A46.66 46.66 0 0 1 4.925 9.212z" id="j"/>
        <path d="M4.925 9.212C7.972 3.071 10.39 0 12.177 0c1.788 0 4.205 3.07 7.252 9.212a46.66 46.66 0 0 1 4.556 26.089l-4.667 40.444a5.205 5.205 0 0 1-5.175 4.602h-3.931a5.205 5.205 0 0 1-5.175-4.602L.369 35.301A46.66 46.66 0 0 1 4.925 9.212z" id="l"/>
        <linearGradient x1=".255%" y1="0%" x2="99.745%" y2="100%" id="m">
            <stop stop-color="#1EC6CE" offset="0%"/>
            <stop stop-color="#7FDDD8" offset="100%"/>
        </linearGradient>
        <path d="M4.925 9.212C7.972 3.071 10.39 0 12.177 0c1.788 0 4.205 3.07 7.252 9.212a46.66 46.66 0 0 1 4.556 26.089l-4.667 40.444a5.205 5.205 0 0 1-5.175 4.602h-3.931a5.205 5.205 0 0 1-5.175-4.602L.369 35.301A46.66 46.66 0 0 1 4.925 9.212z" id="o"/>
        <path d="M4.925 9.212C7.972 3.071 10.39 0 12.177 0c1.788 0 4.205 3.07 7.252 9.212a46.66 46.66 0 0 1 4.556 26.089l-4.667 40.444a5.205 5.205 0 0 1-5.175 4.602h-3.931a5.205 5.205 0 0 1-5.175-4.602L.369 35.301A46.66 46.66 0 0 1 4.925 9.212z" id="q"/>
        <path d="M4.925 9.212C7.972 3.071 10.39 0 12.177 0c1.788 0 4.205 3.07 7.252 9.212a46.66 46.66 0 0 1 4.556 26.089l-4.667 40.444a5.205 5.205 0 0 1-5.175 4.602h-3.931a5.205 5.205 0 0 1-5.175-4.602L.369 35.301A46.66 46.66 0 0 1 4.925 9.212z" id="s"/>
        <path d="M4.925 9.212C7.972 3.071 10.39 0 12.177 0c1.788 0 4.205 3.07 7.252 9.212a46.66 46.66 0 0 1 4.556 26.089l-4.667 40.444a5.205 5.205 0 0 1-5.175 4.602h-3.931a5.205 5.205 0 0 1-5.175-4.602L.369 35.301A46.66 46.66 0 0 1 4.925 9.212z" id="u"/>
        <linearGradient x1="0%" y1="0%" y2="100%" id="v">
            <stop stop-color="#3D41DA" offset="0%"/>
            <stop stop-color="#1E1F44" offset="100%"/>
        </linearGradient>
        <path d="M4.925 9.212C7.972 3.071 10.39 0 12.177 0c1.788 0 4.205 3.07 7.252 9.212a46.66 46.66 0 0 1 4.556 26.089l-4.667 40.444a5.205 5.205 0 0 1-5.175 4.602h-3.931a5.205 5.205 0 0 1-5.175-4.602L.369 35.301A46.66 46.66 0 0 1 4.925 9.212z" id="x"/>
        <linearGradient x1="100%" y1="50.25%" x2="0%" y2="49.75%" id="z">
            <stop stop-color="#0F529B" offset="0%"/>
            <stop stop-color="#1E1F44" offset="100%"/>
        </linearGradient>
        <rect id="A" width="2.479" height="35.023" rx="1.239"/>
    </defs>
    <g transform="translate(60 -7)" fill="none" fill-rule="evenodd">
        <mask id="b" fill="#fff">
            <use xlink:href="#a"/>
        </mask>
        <g mask="url(#b)">
            <g transform="translate(-.724 111.54)" fill-rule="nonzero">
                <path d="M4.95 0H165.5c2.333 0 4.224 1.852 4.224 4.137v157.205c0 2.285-1.891 4.137-4.225 4.137H4.95c-2.333 0-4.225-1.852-4.225-4.137V4.137C.724 1.852 2.616 0 4.95 0z" fill="#1E1F44"/>
                <path d="M.724 0h169v149.448c0 2.285-1.891 4.137-4.225 4.137H4.95c-2.333 0-4.225-1.852-4.225-4.137V0z" fill="url(#c)" transform="translate(0 11.894)"/>
                <path d="M30.897 51.195c-6.864 0-12.429-5.556-12.429-12.41 0-6.855 5.565-12.412 12.429-12.412s12.429 5.557 12.429 12.411c0 6.855-5.565 12.411-12.43 12.411zM22.61 67.743a4.14 4.14 0 0 1-4.143-4.137 4.14 4.14 0 0 1 4.143-4.137 4.14 4.14 0 0 1 4.143 4.137 4.14 4.14 0 0 1-4.143 4.137zm12.429 0a4.14 4.14 0 0 1-4.143-4.137 4.14 4.14 0 0 1 4.143-4.137 4.14 4.14 0 0 1 4.143 4.137 4.14 4.14 0 0 1-4.143 4.137zm12.428 0a4.14 4.14 0 0 1-4.142-4.137 4.14 4.14 0 0 1 4.142-4.137 4.14 4.14 0 0 1 4.143 4.137 4.14 4.14 0 0 1-4.143 4.137zm12.43 0a4.14 4.14 0 0 1-4.144-4.137 4.14 4.14 0 0 1 4.143-4.137 4.14 4.14 0 0 1 4.143 4.137 4.14 4.14 0 0 1-4.143 4.137zm12.428 0a4.14 4.14 0 0 1-4.143-4.137 4.14 4.14 0 0 1 4.143-4.137 4.14 4.14 0 0 1 4.143 4.137 4.14 4.14 0 0 1-4.143 4.137zm-21.75-35.681h42.982v6.205H50.576v-6.205zM18.468 77.568h121.698v2.586H18.468v-2.586zm0 6.206h129.984v2.585H18.468v-2.585zm0 6.205h121.698v2.586H18.468v-2.586zm0 6.206h129.984v2.585H18.468v-2.585zm0 6.205h121.698v2.586H18.468v-2.586zm0 12.411h121.698v2.586H18.468V114.8zm0-6.205h129.984v2.585H18.468v-2.585zm0 20.685h129.984v36.198H18.468v-36.198zm32.108-88.945h34.697v6.205H50.576v-6.205z" fill="#1E1F44" opacity=".3"/>
                <ellipse fill="#FF5050" cx="8.629" cy="6.205" rx="2.071" ry="2.068"/>
                <ellipse fill="#FEBE12" cx="14.843" cy="6.205" rx="2.071" ry="2.068"/>
                <ellipse fill="#1ECE8E" cx="21.057" cy="6.205" rx="2.071" ry="2.068"/>
            </g>
            <path d="M184.279 81.529c-29.62 54.455-58.69 87.213-74.488 96.204-4.453 2.534-10.115 22.715 76.334 17.973l14.388 1.88c-17.354-48.14-20.944-86.473-10.77-114.999.443-1.242.868-2.442 1.276-3.602 12.938-32.425 19.262-45.204 7.607-23.867.522-2.294.41-2.912-.215-2.023 1.375-7.76-4.698 3.064-12.27 25.009a9982.37 9982.37 0 0 1-1.862 3.425z" fill="url(#d)" fill-rule="nonzero" transform="translate(-57.267 5.577)"/>
            <g transform="rotate(20 51.545 396.653)">
                <rect fill="#FFF" fill-rule="nonzero" x="16.111" y="77.463" width="7.436" height="4.532" rx="2.266"/>
                <path d="M11.567.788a4.95 4.95 0 0 1 4.957 4.945v7.417c0 2.275-1.85 4.12-4.131 4.12h-.255a5.208 5.208 0 0 0-4.99 3.703L3.638 32.64a1.562 1.562 0 0 1-1.496 1.11h-.49a1.351 1.351 0 0 1-1.328-1.616l5.448-27.17A5.206 5.206 0 0 1 10.88.788h.687z" fill="url(#e)" transform="translate(0 58.957)"/>
                <path d="M11.567 59.745a4.95 4.95 0 0 1 4.957 4.945v7.416c0 2.276-1.85 4.12-4.131 4.12h-.255a5.208 5.208 0 0 0-4.99 3.704l-3.51 11.667a1.562 1.562 0 0 1-1.496 1.111h-.49a1.351 1.351 0 0 1-1.328-1.616l5.448-27.17a5.206 5.206 0 0 1 5.108-4.177h.687z" fill="#000" fill-rule="nonzero"/>
                <path d="M4.957 0a6.05 6.05 0 0 1 5.932 4.86l5.31 26.483a1.354 1.354 0 0 1-1.328 1.62c-.98 0-1.845-.643-2.128-1.582L9.452 20.437a5.556 5.556 0 0 0-5.321-3.956A4.13 4.13 0 0 1 0 12.351V4.957A4.957 4.957 0 0 1 4.957 0z" fill="url(#f)" fill-rule="nonzero" transform="translate(23.133 59.745)"/>
                <g transform="translate(23.133 59.745)">
                    <mask id="h" fill="#fff">
                        <use xlink:href="#g"/>
                    </mask>
                    <path fill-opacity=".7" fill="#1E1F44" fill-rule="nonzero" mask="url(#h)" d="M-3.206.122l24.257 11.272-4.43 24.614-19.33-14.462z"/>
                </g>
                <g>
                    <path d="M4.925 9.212C7.972 3.071 10.39 0 12.177 0c1.788 0 4.205 3.07 7.252 9.212a46.66 46.66 0 0 1 4.556 26.089l-4.667 40.444a5.205 5.205 0 0 1-5.175 4.602h-3.931a5.205 5.205 0 0 1-5.175-4.602L.369 35.301A46.66 46.66 0 0 1 4.925 9.212z" fill="url(#i)" fill-rule="nonzero" transform="translate(7.238)"/>
                    <g transform="translate(7.238)">
                        <mask id="k" fill="#fff">
                            <use xlink:href="#j"/>
                        </mask>
                        <g mask="url(#k)">
                            <path d="M14.781 46.764c.466 0 .847.378.847.84v5.038c0 .461-.381.84-.847.84H9.702a.846.846 0 0 1-.846-.84v-5.039c0-.461.38-.84.846-.84h5.08zm-.846 3.778v-.84h-1.27v-1.259h-.846v1.26h-1.27v.84h1.27v1.259h.846v-1.26h1.27z" fill="#FFF" fill-rule="nonzero"/>
                        </g>
                    </g>
                    <g transform="translate(7.238)">
                        <mask id="n" fill="#fff">
                            <use xlink:href="#l"/>
                        </mask>
                        <ellipse stroke="#FFF" fill="url(#m)" fill-rule="nonzero" mask="url(#n)" cx="12.177" cy="28.018" rx="4.957" ry="4.944"/>
                    </g>
                    <g transform="translate(7.238)">
                        <mask id="p" fill="#fff">
                            <use xlink:href="#o"/>
                        </mask>
                        <ellipse stroke="#FFF" fill="url(#m)" fill-rule="nonzero" mask="url(#p)" cx="12.177" cy="14.833" rx="1.652" ry="1.648"/>
                    </g>
                    <g transform="translate(7.238)">
                        <mask id="r" fill="#fff">
                            <use xlink:href="#q"/>
                        </mask>
                        <path d="M-12.608 15.245c0 15.02 11.096 27.195 24.785 27.195s24.786-12.176 24.786-27.195" stroke="#FEBE12" stroke-width="3" mask="url(#r)"/>
                    </g>
                    <g transform="translate(7.238)">
                        <mask id="t" fill="#fff">
                            <use xlink:href="#s"/>
                        </mask>
                        <path d="M-2.694 54.8c0 7.738 6.658 14.01 14.871 14.01 8.213 0 14.871-6.272 14.871-14.01" stroke="#FEBE12" stroke-width="3" mask="url(#t)"/>
                    </g>
                    <g transform="translate(7.238)">
                        <mask id="w" fill="#fff">
                            <use xlink:href="#u"/>
                        </mask>
                        <path d="M35.64 26.782l-6.366 55.164a5.192 5.192 0 0 1-1.898 3.445l-6.607 5.332a5.155 5.155 0 0 1-3.183 1.143 5.14 5.14 0 0 1-5.201-5.08c-.313-29.504-.272-48.407.122-56.707.66-13.884 2.366-26.37 6.61-26.37 2.829 0 8.337 7.69 16.523 23.073z" fill="url(#v)" fill-rule="nonzero" opacity=".34" style="mix-blend-mode:multiply" mask="url(#w)"/>
                    </g>
                    <g transform="translate(7.238)">
                        <mask id="y" fill="#fff">
                            <use xlink:href="#x"/>
                        </mask>
                        <path fill="#1E1F44" fill-rule="nonzero" opacity=".1" mask="url(#y)" d="M3.059 59.656l10.029 7.046-.695 18.966-4.32-3.142-6.052-6.88z"/>
                    </g>
                </g>
                <g>
                    <rect width="2.479" height="35.023" rx="1.239" fill="url(#z)" fill-rule="nonzero" transform="translate(18.59 59.333)"/>
                    <g transform="translate(18.59 59.333)">
                        <mask id="B" fill="#fff">
                            <use xlink:href="#A"/>
                        </mask>
                        <path fill-opacity=".7" fill="#1E1F44" fill-rule="nonzero" mask="url(#B)" d="M1.239-2.884h4.544v39.968H1.239z"/>
                    </g>
                </g>
            </g>
            <path d="M32.857 192.468a7.453 7.453 0 0 1-1.956-5.042c0-4.14 3.367-7.494 7.52-7.494 1.321 0 2.562.339 3.64.934 1.248-6.136 6.691-10.755 13.217-10.755 1.318 0 2.591.189 3.795.54 2.27-8.352 9.928-14.495 19.026-14.495 8.93 0 16.472 5.918 18.894 14.032 7.45.758 13.263 7.03 13.263 14.654 0 .415-.018.826-.051 1.232a10.624 10.624 0 0 1 4.46-.974c3.999 0 7.483 2.201 9.298 5.454a17.121 17.121 0 0 1 15.856-10.622c9.453 0 17.116 7.636 17.116 17.056 0 1.108-.106 2.191-.309 3.24h6.838l19.877 18.387-17.422 28.357c-53.088 2.31-84.167 3.368-93.236 3.174-9.068-.195-23.438-11.603-43.108-34.223l2.16-20.9 1.122-2.555z" fill="#BEF0FC" fill-rule="nonzero"/>
            <path d="M68.28 262.84c-6.775 8.261-12.548 12.867-17.32 13.818-8.376 1.669-37.363 5.788-86.961 12.357l-20.772-23.436 15.435-20.312 6.339-1.122a16.08 16.08 0 0 1-.814-2.955c-1.534-8.735 4.327-17.073 13.09-18.625a16.095 16.095 0 0 1 16.432 7.248 10.03 10.03 0 0 1 7.733-6.583 9.996 9.996 0 0 1 4.294.172c-.098-.371-.18-.75-.248-1.135-1.242-7.07 3.126-13.84 9.91-15.765.924-7.922 6.953-14.647 15.232-16.112 8.435-1.493 16.537 2.947 20 10.319a12.75 12.75 0 0 1 3.432-1.123c6.05-1.071 11.849 2.319 14.005 7.804a7.075 7.075 0 0 1 3.223-1.464c3.85-.682 7.52 1.877 8.193 5.715a7.025 7.025 0 0 1-.992 4.997l1.456 2.185.896 3.151 4.408.775a16.08 16.08 0 0 1 .246-3.055c1.546-8.733 9.905-14.564 18.672-13.024a16.095 16.095 0 0 1 12.961 12.43 10.03 10.03 0 0 1 9.518-3.54c1.477.259 2.821.828 3.976 1.63.036-.383.087-.767.155-1.152 1.251-7.069 7.671-11.936 14.705-11.425 3.577-7.128 11.543-11.385 19.824-9.93 8.437 1.481 14.531 8.425 15.265 16.537a12.75 12.75 0 0 1 3.608.118c6.052 1.063 10.342 6.232 10.492 12.124a7.075 7.075 0 0 1 3.53-.274c3.85.677 6.423 4.336 5.744 8.173a7.025 7.025 0 0 1-2.642 4.356l.62 2.552-1.425 19.727c-21.953 17.767-37.15 26.002-45.593 24.705-8.442-1.297-37.09-7.34-85.944-18.13l-.683-1.731z" fill="#89E0F7" fill-rule="nonzero"/>
        </g>
    </g>
</svg>
