<svg width="256" height="141" xmlns="http://www.w3.org/2000/svg" xmlns:xlink="http://www.w3.org/1999/xlink"><defs><linearGradient x1="100%" y1="50.173%" x2="0%" y2="49.827%" id="a"><stop stop-color="#FFF" offset="0%"/><stop stop-color="#F3F3F3" offset="100%"/></linearGradient><linearGradient x1="0%" y1="50%" x2="100%" y2="50%" id="b"><stop stop-color="#DDD" offset="0%"/><stop stop-color="#D3D3D3" offset="100%"/></linearGradient><path d="M46.964 9.294h160.072c.532 0 .964.421.964.941v94.118c0 .52-.432.941-.964.941H46.964a.953.953 0 0 1-.964-.941V10.235c0-.52.432-.94.964-.94z" id="d"/><filter x="-8%" y="-11.5%" width="116%" height="127.1%" filterUnits="objectBoundingBox" id="c"><feOffset dy="2" in="SourceAlpha" result="shadowOffsetOuter1"/><feGaussianBlur stdDeviation="4" in="shadowOffsetOuter1" result="shadowBlurOuter1"/><feColorMatrix values="0 0 0 0 0 0 0 0 0 0 0 0 0 0 0 0 0 0 0.1 0" in="shadowBlurOuter1"/></filter><linearGradient x1="100%" y1="65.331%" x2="0%" y2="34.669%" id="e"><stop stop-color="#3D41DA" offset="0%"/><stop stop-color="#0088F7" offset="100%"/></linearGradient><linearGradient x1="50%" y1="0%" x2="50%" y2="100%" id="f"><stop stop-color="#FFF" stop-opacity=".4" offset="0%"/><stop stop-color="#FFF" stop-opacity=".2" offset="100%"/></linearGradient><path id="h" d="M27 25h200v12H27z"/><filter x="-3.5%" y="-41.7%" width="107%" height="216.7%" filterUnits="objectBoundingBox" id="g"><feOffset dy="2" in="SourceAlpha" result="shadowOffsetOuter1"/><feGaussianBlur stdDeviation="2" in="shadowOffsetOuter1" result="shadowBlurOuter1"/><feColorMatrix values="0 0 0 0 0.117647059 0 0 0 0 0.121568627 0 0 0 0 0.266666667 0 0 0 0.2 0" in="shadowBlurOuter1"/></filter><path id="j" d="M0 0h48v34H0z"/><filter x="-14.6%" y="-14.7%" width="129.2%" height="141.2%" filterUnits="objectBoundingBox" id="i"><feOffset dy="2" in="SourceAlpha" result="shadowOffsetOuter1"/><feGaussianBlur stdDeviation="2" in="shadowOffsetOuter1" result="shadowBlurOuter1"/><feColorMatrix values="0 0 0 0 0.117647059 0 0 0 0 0.121568627 0 0 0 0 0.266666667 0 0 0 0.2 0" in="shadowBlurOuter1"/></filter><path id="l" d="M75 49h96v68H75z"/><filter x="-7.3%" y="-7.4%" width="114.6%" height="120.6%" filterUnits="objectBoundingBox" id="k"><feOffset dy="2" in="SourceAlpha" result="shadowOffsetOuter1"/><feGaussianBlur stdDeviation="2" in="shadowOffsetOuter1" result="shadowBlurOuter1"/><feColorMatrix values="0 0 0 0 0.117647059 0 0 0 0 0.121568627 0 0 0 0 0.266666667 0 0 0 0.2 0" in="shadowBlurOuter1"/></filter></defs><g fill="none" fill-rule="evenodd"><path d="M42.353 0h171.294a4.706 4.706 0 0 1 4.706 4.706v109.823a5 5 0 0 1-5 5H42.647a5 5 0 0 1-5-5V4.706A4.706 4.706 0 0 1 42.353 0z" fill="#1E1F44"/><path fill="url(#a)" transform="matrix(1 0 0 -1 0 133.647)" d="M0 0h256l-37.96 15.059H37.96z"/><path d="M52.941 119.53H203.06l18.196 7.529H34.745l18.196-7.53zM87.882 132.235l3.451-3.764h73.334l3.45 3.764H87.883z" fill-opacity=".04" fill="#000"/><path d="M0 15.059h256c-2.199 4.074-6.29 6.588-10.722 6.588H10.722C6.29 21.647 2.199 19.133 0 15.06z" fill="url(#b)" transform="translate(0 118.588)"/><use fill="#000" filter="url(#c)" xlink:href="#d"/><use fill="#FFF" xlink:href="#d"/><path d="M46 20.588h162v88.71c0 .55-.432.996-.964.996H46.964c-.532 0-.964-.446-.964-.997V20.588z" fill="url(#e)"/><path d="M122.824 0h90.798a4.706 4.706 0 0 1 4.705 4.706v113.882h-53.459L122.824 0z" fill="url(#f)"/><circle fill="#FF6550" cx="51.588" cy="14.941" r="1.412"/><circle fill="#FEBE12" cx="56.294" cy="14.941" r="1.412"/><circle fill="#1ECE8E" cx="61" cy="14.941" r="1.412"/><g><use fill="#000" filter="url(#g)" xlink:href="#h"/><use fill="#FEBE12" xlink:href="#h"/></g><path d="M82 28h56a3 3 0 0 1 0 6H82a3 3 0 0 1 0-6z" fill="#FFF"/><g><g transform="translate(179 70)"><use fill="#000" filter="url(#i)" xlink:href="#j"/><use fill="#1EC6CE" xlink:href="#j"/></g><path d="M187.5 75.5h30a2.5 2.5 0 1 1 0 5h-30a2.5 2.5 0 0 1 0-5zM191.5 82.5h22a2.5 2.5 0 1 1 0 5h-22a2.5 2.5 0 1 1 0-5zM185 91.5h16v7h-16z" fill="#FFF"/><path fill="#FFF" opacity=".5" d="M205 91.5h16v7h-16z"/></g><rect fill="#FF6550" x="143" y="28" width="24" height="6" rx="3"/><g><use fill="#000" filter="url(#k)" xlink:href="#l"/><use fill="#FF6550" xlink:href="#l"/></g><path d="M92 60h60a5 5 0 1 1 0 10H92a5 5 0 0 1 0-10zM100 74h44a5 5 0 1 1 0 10h-44a5 5 0 0 1 0-10zM87 92h32v14H87z" fill="#FFF"/><path fill="#FFF" opacity=".5" d="M127 92h32v14h-32z"/></g></svg>