<svg width="264" height="160" xmlns="http://www.w3.org/2000/svg">
    <g fill="none" fill-rule="evenodd">
        <rect fill="#DDD" x="200" width="64" height="160" rx="8"/>
        <rect fill="#BFBFBF" x="219" y="151" width="32" height="2" rx="1"/>
        <rect fill="#DDD" width="192" height="160" rx="4"/>
        <path d="M4 14h184a2 2 0 0 1 2 2v140a2 2 0 0 1-2 2H4a2 2 0 0 1-2-2V16a2 2 0 0 1 2-2z" fill="#FFF"/>
        <rect fill="#FFF" x="202" y="16" width="60" height="128" rx="2"/>
        <rect fill="#BFBFBF" x="216" y="9" width="32" height="2" rx="1"/>
        <rect fill="#BFBFBF" x="228" y="4" width="8" height="2" rx="1"/>
        <circle fill="#BFBFBF" cx="7" cy="7" r="2"/>
        <circle fill="#BFBFBF" cx="13" cy="7" r="2"/>
        <circle fill="#BFBFBF" cx="19" cy="7" r="2"/>
        <path d="M211 36a4 4 0 1 1 0-8 4 4 0 0 1 0 8zm8-6h31v4h-31v-4zm-12 11h52v8h-52v-8zm0 12h36v8h-36v-8zm0 36h52v4h-52v-4zm0 8h48v4h-48v-4zm0 8h52v4h-52v-4zm0 8h48v4h-48v-4zm0 8h52v4h-52v-4zm0 8h48v4h-48v-4zM50 44a8 8 0 1 1 0-16 8 8 0 0 1 0 16zm16-12h39v8H66v-8zM42 57h87v10H42V57zm0 16h71v10H42V73zm0 54h111v4H42v-4zm0 8h103v4H42v-4zm0 8h111v4H42v-4zm0 8h103v4H42v-4z" fill="#EEE"/>
        <path fill="#3B5998" d="M207 69h12v12h-12z"/>
        <path d="M214.5 72.29a8.377 8.377 0 0 0-.858-.04c-.85 0-1.433.456-1.433 1.292v.72h-.96v.98h.96v2.508h1.151V75.24h.956l.146-.978h-1.102v-.625c0-.28.087-.476.55-.476h.59v-.872z" fill="#FFF"/>
        <path fill="#1DA1F2" d="M221 69h12v12h-12z"/>
        <path fill="#0077B5" d="M235 69h12v12h-12z"/>
        <path d="M243.998 77.987h-1.243v-1.945c0-.463-.008-1.06-.645-1.06-.647 0-.746.505-.746 1.027v1.978h-1.242v-3.999h1.192v.547h.017c.166-.315.571-.646 1.176-.646 1.259 0 1.491.828 1.491 1.905v2.193zm-5.277-4.545A.72.72 0 1 1 238.72 72a.72.72 0 0 1 .001 1.44zm-.622.546h1.244v4h-1.244v-4zM229.998 73.529c-.202.09-.42.15-.648.178.233-.14.412-.361.497-.625a2.26 2.26 0 0 1-.717.274 1.128 1.128 0 0 0-1.922 1.029 3.203 3.203 0 0 1-2.326-1.179 1.128 1.128 0 0 0 .35 1.506 1.124 1.124 0 0 1-.511-.14v.014c0 .546.388 1.002.904 1.106a1.13 1.13 0 0 1-.509.02c.144.447.56.774 1.054.783a2.264 2.264 0 0 1-1.67.467c.499.32 1.092.507 1.729.507 2.075 0 3.21-1.72 3.21-3.21 0-.05-.001-.098-.003-.146.22-.16.411-.358.562-.584" fill="#FFF"/>
        <g>
            <path fill="#3B5998" d="M42 99h12v12H42z"/>
            <path d="M49.5 102.29a8.377 8.377 0 0 0-.858-.04c-.85 0-1.433.456-1.433 1.292v.72h-.96v.98h.96v2.508h1.151v-2.509h.956l.146-.978H48.36v-.625c0-.28.087-.476.55-.476h.59v-.872z" fill="#FFF"/>
            <path fill="#1DA1F2" d="M56 99h12v12H56z"/>
            <path fill="#0077B5" d="M70 99h12v12H70z"/>
            <path d="M78.998 107.987h-1.243v-1.945c0-.463-.008-1.06-.645-1.06-.647 0-.746.505-.746 1.027v1.978h-1.242v-3.999h1.192v.547h.017c.166-.315.571-.646 1.176-.646 1.259 0 1.491.828 1.491 1.905v2.193zm-5.277-4.545A.72.72 0 1 1 73.72 102a.72.72 0 0 1 .001 1.44zm-.622.546h1.244v4h-1.244v-4zM64.998 103.529c-.202.09-.42.15-.648.178.233-.14.412-.361.497-.625a2.26 2.26 0 0 1-.717.274 1.128 1.128 0 0 0-1.922 1.029 3.203 3.203 0 0 1-2.326-1.179 1.128 1.128 0 0 0 .35 1.506 1.124 1.124 0 0 1-.511-.14v.014c0 .546.388 1.002.904 1.106a1.13 1.13 0 0 1-.509.02c.144.447.56.774 1.054.783a2.264 2.264 0 0 1-1.67.467c.499.32 1.092.507 1.729.507 2.075 0 3.21-1.72 3.21-3.21 0-.05-.001-.098-.003-.146.22-.16.411-.358.562-.584" fill="#FFF"/>
        </g>
        <g>
            <g transform="translate(161.778 18)">
                <rect fill="#3B5998" width="7.111" height="7.111" rx="3.556"/>
                <path d="M4.444 1.95a4.965 4.965 0 0 0-.508-.024c-.504 0-.85.27-.85.766v.427H2.52v.58h.568v1.486h.682V3.7h.566l.087-.58H3.77v-.37c0-.167.051-.282.325-.282h.35v-.518z" fill="#FFF"/>
            </g>
            <g transform="translate(170.667 18)">
                <rect fill="#1DA1F2" width="7.111" height="7.111" rx="3.556"/>
                <path d="M5.333 2.684c-.12.053-.25.089-.384.105a.67.67 0 0 0 .294-.37c-.13.077-.273.133-.425.162a.668.668 0 0 0-1.14.61 1.898 1.898 0 0 1-1.377-.698.668.668 0 0 0 .207.893.666.666 0 0 1-.303-.084v.008c0 .324.23.594.536.656a.67.67 0 0 1-.302.011.67.67 0 0 0 .625.464 1.341 1.341 0 0 1-.99.277c.296.19.647.3 1.025.3C4.329 5.019 5 4 5 3.117c0-.029 0-.057-.002-.086.13-.094.244-.212.334-.346" fill="#FFF"/>
            </g>
            <g transform="translate(179.556 18)">
                <rect fill="#0077B5" width="7.111" height="7.111" rx="3.556"/>
                <path d="M5.037 5.032h-.62v-.97c0-.232-.004-.53-.322-.53-.323 0-.372.252-.372.513v.987h-.62V3.036h.595v.273h.008a.651.651 0 0 1 .587-.322c.628 0 .744.413.744.95v1.095zM2.404 2.764a.36.36 0 1 1 0-.72.36.36 0 0 1 0 .72zm-.31.272h.62v1.996h-.62V3.036z" fill="#FFF"/>
            </g>
            <path d="M144.64 20.222h2.027l-.005.387h-1.595v1.022h1.435v.387h-1.435v1.315h-.427v-3.11zm4.087.898c.182.1.324.24.426.42.103.18.154.384.154.616 0 .23-.051.437-.154.617-.102.181-.244.322-.426.423-.183.1-.39.15-.625.15-.237 0-.446-.05-.629-.15-.182-.101-.324-.241-.426-.42a1.23 1.23 0 0 1-.154-.62c0-.232.051-.437.154-.616.102-.18.244-.32.426-.42.183-.1.392-.151.63-.151.233 0 .441.05.624.151zm-1.036.316a.737.737 0 0 0-.28.295.903.903 0 0 0-.1.429c0 .163.033.308.1.436.067.127.16.225.28.295.12.07.257.105.411.105a.795.795 0 0 0 .407-.105.719.719 0 0 0 .28-.295.925.925 0 0 0 .1-.436.903.903 0 0 0-.1-.429.737.737 0 0 0-.28-.295.782.782 0 0 0-.407-.107.791.791 0 0 0-.41.107zm2.216-1.4h.413v3.297h-.413v-3.297zm1.266 0h.414v3.297h-.414v-3.297zm2.847 1.084c.182.1.324.24.427.42.102.18.153.384.153.616 0 .23-.051.437-.153.617-.103.181-.245.322-.427.423-.182.1-.39.15-.624.15-.237 0-.447-.05-.63-.15-.182-.101-.324-.241-.426-.42a1.23 1.23 0 0 1-.153-.62c0-.232.05-.437.153-.616.102-.18.244-.32.427-.42.182-.1.392-.151.629-.151.234 0 .442.05.624.151zm-1.036.316a.737.737 0 0 0-.28.295.903.903 0 0 0-.1.429c0 .163.034.308.1.436.067.127.16.225.28.295.12.07.257.105.412.105a.795.795 0 0 0 .406-.105.719.719 0 0 0 .28-.295.925.925 0 0 0 .1-.436.903.903 0 0 0-.1-.429.737.737 0 0 0-.28-.295.782.782 0 0 0-.406-.107.791.791 0 0 0-.412.107zm1.803-.454h.43l.659 1.942.648-1.942h.432l.653 1.942.649-1.942h.426l-.866 2.351h-.431l-.65-1.849-.648 1.85h-.431l-.871-2.352z" fill="#878787"/>
        </g>
        <g>
            <g transform="translate(234.778 18)">
                <rect fill="#3B5998" width="7.111" height="7.111" rx="3.556"/>
                <path d="M4.444 1.95a4.965 4.965 0 0 0-.508-.024c-.504 0-.85.27-.85.766v.427H2.52v.58h.568v1.486h.682V3.7h.566l.087-.58H3.77v-.37c0-.167.051-.282.325-.282h.35v-.518z" fill="#FFF"/>
            </g>
            <g transform="translate(243.667 18)">
                <rect fill="#1DA1F2" width="7.111" height="7.111" rx="3.556"/>
                <path d="M5.333 2.684c-.12.053-.25.089-.384.105a.67.67 0 0 0 .294-.37c-.13.077-.273.133-.425.162a.668.668 0 0 0-1.14.61 1.898 1.898 0 0 1-1.377-.698.668.668 0 0 0 .207.893.666.666 0 0 1-.303-.084v.008c0 .324.23.594.536.656a.67.67 0 0 1-.302.011.67.67 0 0 0 .625.464 1.341 1.341 0 0 1-.99.277c.296.19.647.3 1.025.3C4.329 5.019 5 4 5 3.117c0-.029 0-.057-.002-.086.13-.094.244-.212.334-.346" fill="#FFF"/>
            </g>
            <g transform="translate(252.556 18)">
                <rect fill="#0077B5" width="7.111" height="7.111" rx="3.556"/>
                <path d="M5.037 5.032h-.62v-.97c0-.232-.004-.53-.322-.53-.323 0-.372.252-.372.513v.987h-.62V3.036h.595v.273h.008a.651.651 0 0 1 .587-.322c.628 0 .744.413.744.95v1.095zM2.404 2.764a.36.36 0 1 1 0-.72.36.36 0 0 1 0 .72zm-.31.272h.62v1.996h-.62V3.036z" fill="#FFF"/>
            </g>
            <path d="M217.64 20.222h2.027l-.005.387h-1.595v1.022h1.435v.387h-1.435v1.315h-.427v-3.11zm4.087.898c.182.1.324.24.426.42.103.18.154.384.154.616 0 .23-.051.437-.154.617-.102.181-.244.322-.426.423-.183.1-.39.15-.625.15-.237 0-.446-.05-.629-.15-.182-.101-.324-.241-.426-.42a1.23 1.23 0 0 1-.154-.62c0-.232.051-.437.154-.616.102-.18.244-.32.426-.42.183-.1.392-.151.63-.151.233 0 .441.05.624.151zm-1.036.316a.737.737 0 0 0-.28.295.903.903 0 0 0-.1.429c0 .163.033.308.1.436.067.127.16.225.28.295.12.07.257.105.411.105a.795.795 0 0 0 .407-.105.719.719 0 0 0 .28-.295.925.925 0 0 0 .1-.436.903.903 0 0 0-.1-.429.737.737 0 0 0-.28-.295.782.782 0 0 0-.407-.107.791.791 0 0 0-.41.107zm2.216-1.4h.413v3.297h-.413v-3.297zm1.266 0h.414v3.297h-.414v-3.297zm2.847 1.084c.182.1.324.24.427.42.102.18.153.384.153.616 0 .23-.051.437-.153.617-.103.181-.245.322-.427.423-.182.1-.39.15-.624.15-.237 0-.447-.05-.63-.15-.182-.101-.324-.241-.426-.42a1.23 1.23 0 0 1-.153-.62c0-.232.05-.437.153-.616.102-.18.244-.32.427-.42.182-.1.392-.151.629-.151.234 0 .442.05.624.151zm-1.036.316a.737.737 0 0 0-.28.295.903.903 0 0 0-.1.429c0 .163.034.308.1.436.067.127.16.225.28.295.12.07.257.105.412.105a.795.795 0 0 0 .406-.105.719.719 0 0 0 .28-.295.925.925 0 0 0 .1-.436.903.903 0 0 0-.1-.429.737.737 0 0 0-.28-.295.782.782 0 0 0-.406-.107.791.791 0 0 0-.412.107zm1.803-.454h.43l.659 1.942.648-1.942h.432l.653 1.942.649-1.942h.426l-.866 2.351h-.431l-.65-1.849-.648 1.85h-.431l-.871-2.352z" fill="#878787"/>
        </g>
    </g>
</svg>
