<svg width="28" height="28" xmlns="http://www.w3.org/2000/svg">
    <g fill="none" fill-rule="evenodd">
        <path fill="#FFF" d="M-328-544H696v3866H-328z"/>
        <g transform="translate(-18 -18)">
            <rect stroke="#DDD" stroke-width="2" fill="#FFF" x="1" y="1" width="62" height="62" rx="31"/>
            <g fill="#000">
                <path d="M32.167 23.887c2.535 0 4.245 1.095 5.22 2.01l3.81-3.72c-2.34-2.175-5.385-3.51-9.03-3.51-5.28 0-9.84 3.03-12.06 7.44l4.365 3.39c1.095-3.255 4.125-5.61 7.695-5.61z" fill="#EA4335"/>
                <path d="M45.127 32.467c0-1.11-.09-1.92-.285-2.76H32.167v5.01h7.44c-.15 1.245-.96 3.12-2.76 4.38l4.26 3.3c2.55-2.355 4.02-5.82 4.02-9.93z" fill="#4285F4"/>
                <path d="M24.487 34.837a8.31 8.31 0 0 1-.45-2.67c0-.93.165-1.83.435-2.67l-4.365-3.39a13.512 13.512 0 0 0-1.44 6.06c0 2.175.525 4.23 1.44 6.06l4.38-3.39z" fill="#FBBC05"/>
                <path d="M32.167 45.667c3.645 0 6.705-1.2 8.94-3.27l-4.26-3.3c-1.14.795-2.67 1.35-4.68 1.35-3.57 0-6.6-2.355-7.68-5.61l-4.365 3.39c2.22 4.41 6.765 7.44 12.045 7.44z" fill="#34A853"/>
            </g>
        </g>
    </g>
</svg>
