<svg width="264" height="160" xmlns="http://www.w3.org/2000/svg">
    <g fill="none" fill-rule="evenodd">
        <rect fill="#DDD" x="200" width="64" height="160" rx="8"/>
        <rect fill="#DDD" width="192" height="160" rx="4"/>
        <path d="M4 14h184a2 2 0 0 1 2 2v140a2 2 0 0 1-2 2H4a2 2 0 0 1-2-2V16a2 2 0 0 1 2-2z" fill="#FFF"/>
        <rect fill="#FFF" x="202" y="16" width="60" height="128" rx="2"/>
        <path d="M210 36a4 4 0 1 1 0-8 4 4 0 0 1 0 8zm8-6h31v4h-31v-4zm-12 11h52v8h-52v-8zm0 12h36v8h-36v-8zm0 20h52v4h-52v-4zm0 8h48v4h-48v-4zm0 8h52v4h-52v-4zm0 8h48v4h-48v-4zm0 8h52v4h-52v-4zm0 8h48v4h-48v-4z" fill="#EEE"/>
        <rect fill="#BFBFBF" x="216" y="9" width="32" height="2" rx="1"/>
        <rect fill="#BFBFBF" x="228" y="4" width="8" height="2" rx="1"/>
        <circle fill="#BFBFBF" cx="7" cy="7" r="2"/>
        <circle fill="#BFBFBF" cx="13" cy="7" r="2"/>
        <circle fill="#BFBFBF" cx="19" cy="7" r="2"/>
        <path d="M49 44a8 8 0 1 1 0-16 8 8 0 0 1 0 16zm16-12h39v8H65v-8zM41 57h87v10H41V57zm0 16h71v10H41V73zm0 24h111v4H41v-4zm0 8h103v4H41v-4zm0 8h111v4H41v-4zm0 8h103v4H41v-4zm0 8h111v4H41v-4zm0 8h103v4H41v-4z" fill="#EEE"/>
        <rect fill="#BFBFBF" x="216" y="151" width="32" height="2" rx="1"/>
        <g>
            <path d="M4 14h184a2 2 0 0 1 2 2v16H2V16a2 2 0 0 1 2-2z" fill="#3D41DA"/>
            <path d="M49.307 21.056c.39-.394.884-.59 1.485-.59.803 0 1.39.263 1.762.79.206.296.316.593.33.892h-.997c-.065-.23-.148-.402-.25-.519-.181-.207-.45-.31-.807-.31a1 1 0 0 0-.858.438c-.21.293-.315.707-.315 1.243 0 .536.111.937.333 1.204.221.266.502.4.844.4.35 0 .617-.115.8-.344.102-.123.186-.307.253-.554h.988c-.086.52-.307.944-.662 1.27-.356.327-.811.49-1.366.49-.687 0-1.227-.22-1.62-.661-.394-.443-.59-1.05-.59-1.821 0-.834.223-1.477.67-1.928zm6.797.768c.179.075.325.19.44.346a.921.921 0 0 1 .178.407c.021.14.032.367.032.682v2.074h-.943v-2.148a.945.945 0 0 0-.097-.46c-.084-.165-.244-.247-.48-.247-.244 0-.43.082-.555.245-.127.163-.19.396-.19.698v1.912h-.92v-4.76h.92v1.688c.134-.205.289-.348.465-.43.176-.08.361-.12.556-.12.218 0 .416.037.594.113zm2.408.845a1.003 1.003 0 0 0-.222.545h1.436c-.016-.244-.09-.43-.222-.556a.69.69 0 0 0-.495-.19c-.214 0-.38.067-.497.201zm1.291-.797c.236.11.43.284.584.522.138.21.227.452.269.729.023.162.033.395.029.7h-2.418c.013.354.125.603.334.745.128.089.28.133.46.133.19 0 .345-.054.464-.162a.77.77 0 0 0 .171-.243h.943c-.023.21-.133.422-.327.638-.302.344-.726.516-1.27.516-.45 0-.846-.145-1.19-.435-.343-.29-.515-.76-.515-1.412 0-.612.155-1.08.465-1.407.31-.326.713-.49 1.207-.49.294 0 .559.056.794.166zm3.613 1.196a.82.82 0 0 0-.132-.357c-.104-.142-.265-.213-.483-.213-.311 0-.524.154-.639.463-.06.164-.09.382-.09.655 0 .259.03.467.09.625.11.294.318.44.622.44.217 0 .37-.058.46-.174a.871.871 0 0 0 .166-.454h.943c-.022.28-.123.547-.305.797-.29.404-.718.606-1.286.606-.568 0-.986-.168-1.254-.505-.268-.337-.402-.775-.402-1.313 0-.607.148-1.079.444-1.416.296-.337.704-.505 1.225-.505.443 0 .805.099 1.087.298.282.198.449.55.5 1.053h-.946zm1.572-2.495h.907v2.573l1.15-1.329h1.145l-1.235 1.351 1.283 2.165h-1.115l-.845-1.51-.383.398v1.112h-.907v-4.76zm5.181 1.918v-.658h.493v-.985h.914v.985h.573v.658h-.573v1.867c0 .144.018.235.055.27.037.036.149.054.337.054a2.591 2.591 0 0 0 .181-.007v.69l-.437.017c-.436.015-.735-.06-.894-.227-.104-.106-.156-.27-.156-.49v-2.174h-.493zm5.115-.667c.179.075.325.19.44.346a.921.921 0 0 1 .178.407c.021.14.032.367.032.682v2.074h-.943v-2.148a.945.945 0 0 0-.097-.46c-.084-.165-.244-.247-.48-.247-.244 0-.429.082-.555.245-.127.163-.19.396-.19.698v1.912h-.92v-4.76h.92v1.688c.134-.205.29-.348.465-.43.176-.08.361-.12.556-.12.218 0 .416.037.594.113zm2.462-.444h-.937v-.853h.937v.853zm-.937.42h.937v3.533h-.937v-3.532zm2.55 2.405c.02.164.062.281.127.35.114.123.326.185.635.185a.968.968 0 0 0 .432-.081c.107-.054.16-.135.16-.243a.262.262 0 0 0-.129-.237c-.086-.054-.407-.147-.962-.278-.4-.1-.682-.224-.846-.373-.164-.147-.246-.359-.246-.635 0-.326.128-.607.384-.841.256-.234.616-.352 1.08-.352.441 0 .8.088 1.078.265.278.176.437.48.478.912h-.924a.546.546 0 0 0-.1-.282c-.102-.126-.274-.188-.519-.188-.2 0-.344.031-.429.094-.085.062-.128.136-.128.22 0 .106.045.183.136.23.09.05.412.135.963.256.367.087.642.217.826.392a.89.89 0 0 1 .272.665c0 .35-.13.635-.39.857-.26.221-.663.332-1.207.332-.556 0-.966-.117-1.23-.352a1.144 1.144 0 0 1-.397-.896h.936zm7.022.188c.145-.192.217-.465.217-.82 0-.354-.072-.627-.217-.818-.144-.191-.352-.287-.622-.287s-.478.096-.624.287c-.145.191-.218.464-.218.818 0 .355.073.628.218.82.146.193.354.289.624.289s.478-.096.622-.289zm.74.51c-.299.369-.752.553-1.359.553s-1.06-.184-1.357-.552c-.298-.369-.447-.812-.447-1.33 0-.51.149-.952.447-1.326.298-.374.75-.56 1.357-.56s1.06.186 1.358.56c.298.374.447.816.447 1.325 0 .519-.149.962-.447 1.33zm2.028-3.102v2.129c0 .2.023.352.071.454.084.179.25.268.496.268.315 0 .531-.127.648-.382.06-.138.09-.32.09-.548v-1.921h.937v3.532h-.898v-.5a1.7 1.7 0 0 0-.064.098.65.65 0 0 1-.123.143c-.145.13-.285.218-.42.265a1.43 1.43 0 0 1-.475.072c-.523 0-.875-.188-1.056-.564-.102-.207-.153-.513-.153-.917V21.8h.947zm2.77.69v-.658h.493v-.985h.914v.985h.573v.658h-.573v1.867c0 .144.018.235.055.27.036.036.149.054.337.054a2.591 2.591 0 0 0 .181-.007v.69l-.437.017c-.437.015-.735-.06-.895-.227-.103-.106-.155-.27-.155-.49v-2.174h-.493zm2.871-1.918h1.015v1.212l-.263 2.23h-.483l-.269-2.23v-1.212zm.023 3.823h.966v.937h-.966v-.937z" fill="#FFF"/>
            <path d="M104 17.5a1.5 1.5 0 0 0-1.5 1.5v8a1.5 1.5 0 0 0 1.5 1.5h38a1.5 1.5 0 0 0 1.5-1.5v-8a1.5 1.5 0 0 0-1.5-1.5h-38z" stroke="#FFF"/>
            <path d="M109.286 20.682h.917l-1.295 2.417v1.455h-.81V23.1l-1.34-2.417h.955l.804 1.686.77-1.686zm2.046 1.713a.813.813 0 0 0-.18.441h1.164c-.012-.198-.072-.348-.18-.45a.559.559 0 0 0-.4-.154.509.509 0 0 0-.404.163zm1.047-.647c.19.09.348.23.473.423.112.17.185.367.218.592.02.13.027.32.024.567h-1.96c.01.287.1.489.27.604a.637.637 0 0 0 .373.108c.154 0 .28-.044.376-.131a.624.624 0 0 0 .14-.197h.764c-.02.17-.108.342-.266.517-.245.279-.588.418-1.03.418-.364 0-.685-.117-.964-.352-.278-.235-.418-.617-.418-1.146 0-.495.126-.875.377-1.14.252-.264.578-.397.98-.397a1.5 1.5 0 0 1 .643.134zm1.802 1.892c.016.133.05.228.103.284.093.1.264.15.515.15a.785.785 0 0 0 .35-.066c.087-.044.13-.11.13-.197a.212.212 0 0 0-.105-.192c-.07-.044-.33-.119-.78-.226-.324-.08-.553-.181-.686-.302-.133-.12-.2-.29-.2-.515 0-.264.104-.492.312-.682.208-.19.5-.285.876-.285.358 0 .649.072.874.214.225.143.354.39.387.74h-.748a.443.443 0 0 0-.082-.229c-.082-.101-.222-.152-.42-.152-.163 0-.28.025-.348.076-.07.05-.104.11-.104.179 0 .086.037.148.11.186.074.04.334.11.78.208.298.07.522.176.67.318.148.143.221.323.221.538a.87.87 0 0 1-.316.695c-.211.18-.538.27-.98.27-.45 0-.782-.095-.996-.285a.927.927 0 0 1-.322-.727h.76zm2.37 1.537a.587.587 0 0 0 .333-.21.775.775 0 0 0 .122-.413h-.455v-.783h.81v.678c0 .12-.016.244-.048.373a.758.758 0 0 1-.176.337.907.907 0 0 1-.327.23.847.847 0 0 1-.259.077v-.289zm4.852-2.64c-.1-.17-.264-.255-.49-.255-.272 0-.458.128-.56.386-.052.137-.079.31-.079.52 0 .333.089.567.266.702.105.079.23.118.373.118a.54.54 0 0 0 .477-.242c.11-.16.164-.375.164-.643 0-.221-.05-.416-.151-.586zm.575-.539c.232.247.348.61.348 1.088 0 .504-.113.889-.34 1.153a1.101 1.101 0 0 1-.876.397.915.915 0 0 1-.568-.17 1.101 1.101 0 0 1-.241-.277v1.493h-.741V21.69h.717v.423c.08-.125.166-.223.257-.295a.946.946 0 0 1 .594-.191c.335 0 .618.123.85.37zm1.654 2.556h-.749v-3.872h.75v3.872zm1.457-2.16a.813.813 0 0 0-.18.442h1.164c-.012-.198-.072-.348-.18-.45a.559.559 0 0 0-.4-.154.509.509 0 0 0-.404.163zm1.047-.646c.191.09.349.23.473.423.112.17.185.367.218.592.02.13.027.32.024.567h-1.96c.01.287.1.489.27.604a.637.637 0 0 0 .373.108c.155 0 .28-.044.376-.131a.624.624 0 0 0 .14-.197h.764c-.02.17-.108.342-.265.517-.246.279-.589.418-1.03.418-.365 0-.686-.117-.965-.352-.278-.235-.417-.617-.417-1.146 0-.495.125-.875.377-1.14.251-.264.577-.397.978-.397a1.5 1.5 0 0 1 .644.134zm2.798 1.414a.814.814 0 0 1-.341.123l-.168.032c-.158.028-.271.062-.34.102a.343.343 0 0 0-.173.318c0 .128.036.22.107.278a.4.4 0 0 0 .258.085c.162 0 .31-.047.446-.142.136-.095.206-.267.211-.518v-.278zm-.454-.35c.138-.017.237-.039.297-.065.107-.046.16-.117.16-.213 0-.117-.04-.198-.122-.243a.763.763 0 0 0-.359-.067c-.177 0-.302.044-.376.131a.546.546 0 0 0-.105.263h-.722c.016-.25.086-.456.21-.617.198-.253.538-.379 1.02-.379.313 0 .591.062.835.187.243.124.365.359.365.704v1.314c0 .09.002.201.005.33.006.099.02.165.045.2a.268.268 0 0 0 .11.087v.11h-.814a.834.834 0 0 1-.047-.162 1.964 1.964 0 0 1-.021-.174 1.538 1.538 0 0 1-.358.287c-.16.092-.343.139-.546.139a.94.94 0 0 1-.643-.222c-.169-.148-.253-.358-.253-.63 0-.352.136-.606.407-.764.149-.086.368-.147.657-.184l.255-.032zm2.451.828c.016.133.05.228.103.284.092.1.264.15.515.15a.785.785 0 0 0 .35-.066c.087-.044.13-.11.13-.197a.212.212 0 0 0-.105-.192c-.07-.044-.33-.119-.78-.226-.324-.08-.553-.181-.686-.302-.133-.12-.2-.29-.2-.515 0-.264.104-.492.312-.682.207-.19.5-.285.876-.285.357 0 .649.072.874.214.225.143.354.39.387.74h-.749a.443.443 0 0 0-.081-.229c-.082-.101-.222-.152-.42-.152-.163 0-.28.025-.349.076-.069.05-.103.11-.103.179 0 .086.037.148.11.186.074.04.334.11.78.208.298.07.522.176.67.318.148.143.221.323.221.538a.87.87 0 0 1-.316.695c-.212.18-.538.27-.98.27-.45 0-.782-.095-.996-.285a.927.927 0 0 1-.322-.727h.76zm3.136-1.245a.813.813 0 0 0-.18.441h1.164c-.012-.198-.072-.348-.18-.45a.559.559 0 0 0-.4-.154.509.509 0 0 0-.404.163zm1.047-.647c.19.09.349.23.473.423.112.17.185.367.218.592.02.13.027.32.024.567h-1.96c.01.287.1.489.27.604a.637.637 0 0 0 .373.108c.154 0 .28-.044.376-.131a.624.624 0 0 0 .14-.197h.764c-.02.17-.108.342-.265.517-.246.279-.589.418-1.03.418-.365 0-.686-.117-.965-.352-.278-.235-.417-.617-.417-1.146 0-.495.125-.875.377-1.14.25-.264.577-.397.978-.397a1.5 1.5 0 0 1 .644.134zm1.46-1.053h.823v.982l-.213 1.808h-.391l-.218-1.808v-.982zm.02 3.1h.782v.76h-.783v-.76z" fill="#FFF"/>
        </g>
        <g>
            <path d="M202 110h60v32a2 2 0 0 1-2 2h-56a2 2 0 0 1-2-2v-32z" fill="#3D41DA"/>
            <path d="M211.307 117.056c.39-.394.884-.59 1.485-.59.803 0 1.39.263 1.762.79.206.296.316.593.33.892h-.997c-.065-.23-.148-.402-.25-.519-.181-.207-.45-.31-.807-.31a1 1 0 0 0-.858.438c-.21.293-.315.707-.315 1.243 0 .536.111.937.333 1.204.221.266.502.4.844.4.35 0 .617-.115.8-.344.102-.123.186-.307.253-.554h.988c-.086.52-.307.944-.662 1.27-.356.327-.811.49-1.366.49-.687 0-1.227-.22-1.62-.661-.394-.443-.59-1.05-.59-1.821 0-.834.223-1.477.67-1.928zm6.797.768c.179.075.325.19.44.346a.921.921 0 0 1 .178.407c.021.14.032.367.032.682v2.074h-.943v-2.148a.945.945 0 0 0-.097-.46c-.084-.165-.244-.247-.48-.247-.244 0-.43.082-.555.245-.127.163-.19.396-.19.698v1.912h-.92v-4.76h.92v1.688c.134-.205.289-.348.465-.43.176-.08.361-.12.556-.12.218 0 .416.037.594.113zm2.408.845a1.003 1.003 0 0 0-.222.545h1.436c-.016-.244-.09-.43-.222-.556a.69.69 0 0 0-.495-.19c-.214 0-.38.067-.497.201zm1.291-.797c.236.11.43.284.584.522.138.21.227.452.269.729.023.162.033.395.029.7h-2.418c.013.354.125.603.334.745.128.089.28.133.46.133.19 0 .345-.054.464-.162a.77.77 0 0 0 .171-.243h.943c-.023.21-.133.422-.327.638-.302.344-.726.516-1.27.516-.45 0-.846-.145-1.19-.435-.343-.29-.515-.76-.515-1.412 0-.612.155-1.08.465-1.407.31-.326.713-.49 1.207-.49.294 0 .559.056.794.166zm3.613 1.196a.82.82 0 0 0-.132-.357c-.104-.142-.265-.213-.483-.213-.311 0-.524.154-.639.463-.06.164-.09.382-.09.655 0 .259.03.467.09.625.11.294.318.44.622.44.217 0 .37-.058.46-.174a.871.871 0 0 0 .166-.454h.943c-.022.28-.123.547-.305.797-.29.404-.718.606-1.286.606-.568 0-.986-.168-1.254-.505-.268-.337-.402-.775-.402-1.313 0-.607.148-1.079.444-1.416.296-.337.704-.505 1.225-.505.443 0 .805.099 1.087.298.282.198.449.55.5 1.053h-.946zm1.572-2.495h.907v2.573l1.15-1.329h1.145l-1.235 1.351 1.283 2.165h-1.115l-.845-1.51-.383.398v1.112h-.907v-4.76zm5.181 1.918v-.658h.493v-.985h.914v.985h.573v.658h-.573v1.867c0 .144.018.235.055.27.037.036.149.054.337.054a2.591 2.591 0 0 0 .181-.007v.69l-.437.017c-.436.015-.735-.06-.894-.227-.104-.106-.156-.27-.156-.49v-2.174h-.493zm5.115-.667c.179.075.325.19.44.346a.921.921 0 0 1 .178.407c.021.14.032.367.032.682v2.074h-.943v-2.148a.945.945 0 0 0-.097-.46c-.084-.165-.244-.247-.48-.247-.244 0-.429.082-.555.245-.127.163-.19.396-.19.698v1.912h-.92v-4.76h.92v1.688c.134-.205.29-.348.465-.43.176-.08.361-.12.556-.12.218 0 .416.037.594.113zm2.462-.444h-.937v-.853h.937v.853zm-.937.42h.937v3.533h-.937v-3.532zm2.55 2.405c.02.164.062.281.127.35.114.123.326.185.635.185a.968.968 0 0 0 .432-.081c.107-.054.16-.135.16-.243a.262.262 0 0 0-.129-.237c-.086-.054-.407-.147-.962-.278-.4-.1-.682-.224-.846-.373-.164-.147-.246-.359-.246-.635 0-.326.128-.607.384-.841.256-.234.616-.352 1.08-.352.441 0 .8.088 1.078.265.278.176.437.48.478.912h-.924a.546.546 0 0 0-.1-.282c-.102-.126-.274-.188-.519-.188-.2 0-.344.031-.429.094-.085.062-.128.136-.128.22 0 .106.045.183.136.23.09.05.412.135.963.256.367.087.642.217.826.392a.89.89 0 0 1 .272.665c0 .35-.13.635-.39.857-.26.221-.663.332-1.207.332-.556 0-.966-.117-1.23-.352a1.144 1.144 0 0 1-.397-.896h.936zm7.022.188c.145-.192.217-.465.217-.82 0-.354-.072-.627-.217-.818-.144-.191-.352-.287-.622-.287s-.478.096-.624.287c-.145.191-.218.464-.218.818 0 .355.073.628.218.82.146.193.354.289.624.289s.478-.096.622-.289zm.74.51c-.299.369-.752.553-1.359.553s-1.06-.184-1.357-.552c-.298-.369-.447-.812-.447-1.33 0-.51.149-.952.447-1.326.298-.374.75-.56 1.357-.56s1.06.186 1.358.56c.298.374.447.816.447 1.325 0 .519-.149.962-.447 1.33zm2.028-3.102v2.129c0 .2.023.352.071.454.084.179.25.268.496.268.315 0 .531-.127.648-.382.06-.138.09-.32.09-.548v-1.921h.937v3.532h-.898v-.5a1.7 1.7 0 0 0-.064.098.65.65 0 0 1-.123.143c-.145.13-.285.218-.42.265a1.43 1.43 0 0 1-.475.072c-.523 0-.875-.188-1.056-.564-.102-.207-.153-.513-.153-.917v-2.13h.947zm2.77.69v-.658h.493v-.985h.914v.985h.573v.658h-.573v1.867c0 .144.018.235.055.27.036.036.149.054.337.054a2.591 2.591 0 0 0 .181-.007v.69l-.437.017c-.437.015-.735-.06-.895-.227-.103-.106-.155-.27-.155-.49v-2.174h-.493zm2.871-1.918h1.015v1.212l-.263 2.23h-.483l-.269-2.23v-1.212zm.023 3.823h.966v.937h-.966v-.937z" fill="#FFF"/>
            <path d="M213 127.5a1.5 1.5 0 0 0-1.5 1.5v8a1.5 1.5 0 0 0 1.5 1.5h38a1.5 1.5 0 0 0 1.5-1.5v-8a1.5 1.5 0 0 0-1.5-1.5h-38z" stroke="#FFF"/>
            <path d="M218.286 130.682h.917l-1.295 2.417v1.455h-.81V133.1l-1.34-2.417h.955l.804 1.686.77-1.686zm2.046 1.713a.813.813 0 0 0-.18.441h1.164c-.012-.198-.072-.348-.18-.45a.559.559 0 0 0-.4-.154.509.509 0 0 0-.404.163zm1.047-.647c.19.09.348.23.473.423.112.17.185.367.218.592.02.13.027.32.024.567h-1.96c.01.287.1.489.27.604a.637.637 0 0 0 .373.108c.154 0 .28-.044.376-.131a.624.624 0 0 0 .14-.197h.764c-.02.17-.108.342-.266.517-.245.279-.588.418-1.03.418-.364 0-.685-.117-.964-.352-.278-.235-.418-.617-.418-1.146 0-.495.126-.875.377-1.14.252-.264.578-.397.98-.397a1.5 1.5 0 0 1 .643.134zm1.802 1.892c.016.133.05.228.103.284.093.1.264.15.515.15a.785.785 0 0 0 .35-.066c.087-.044.13-.11.13-.197a.212.212 0 0 0-.105-.192c-.07-.044-.33-.119-.78-.226-.324-.08-.553-.181-.686-.302-.133-.12-.2-.29-.2-.515 0-.264.104-.492.312-.682.208-.19.5-.285.876-.285.358 0 .649.072.874.214.225.143.354.39.387.74h-.748a.443.443 0 0 0-.082-.229c-.082-.101-.222-.152-.42-.152-.163 0-.28.025-.348.076-.07.05-.104.11-.104.179 0 .086.037.148.11.186.074.04.334.11.78.208.298.07.522.176.67.318.148.143.221.323.221.538a.87.87 0 0 1-.316.695c-.211.18-.538.27-.98.27-.45 0-.782-.095-.996-.285a.927.927 0 0 1-.322-.727h.76zm2.37 1.537a.587.587 0 0 0 .333-.21.775.775 0 0 0 .122-.413h-.455v-.783h.81v.678c0 .12-.016.244-.048.373a.758.758 0 0 1-.176.337.907.907 0 0 1-.327.23.847.847 0 0 1-.259.077v-.289zm4.852-2.64c-.1-.17-.264-.255-.49-.255-.272 0-.458.128-.56.386-.052.137-.079.31-.079.52 0 .333.089.567.266.702.105.079.23.118.373.118a.54.54 0 0 0 .477-.242c.11-.16.164-.375.164-.643 0-.221-.05-.416-.151-.586zm.575-.539c.232.247.348.61.348 1.088 0 .504-.113.889-.34 1.153a1.101 1.101 0 0 1-.876.397.915.915 0 0 1-.568-.17 1.101 1.101 0 0 1-.241-.277v1.493h-.741v-3.991h.717v.423c.08-.125.166-.223.257-.295a.946.946 0 0 1 .594-.191c.335 0 .618.123.85.37zm1.654 2.556h-.749v-3.872h.75v3.872zm1.457-2.16a.813.813 0 0 0-.18.442h1.164c-.012-.198-.072-.348-.18-.45a.559.559 0 0 0-.4-.154.509.509 0 0 0-.404.163zm1.047-.646c.191.09.349.23.473.423.112.17.185.367.218.592.02.13.027.32.024.567h-1.96c.01.287.1.489.27.604a.637.637 0 0 0 .373.108c.155 0 .28-.044.376-.131a.624.624 0 0 0 .14-.197h.764c-.02.17-.108.342-.265.517-.246.279-.589.418-1.03.418-.365 0-.686-.117-.965-.352-.278-.235-.417-.617-.417-1.146 0-.495.125-.875.377-1.14.251-.264.577-.397.978-.397a1.5 1.5 0 0 1 .644.134zm2.798 1.414a.814.814 0 0 1-.341.123l-.168.032c-.158.028-.271.062-.34.102a.343.343 0 0 0-.173.318c0 .128.036.22.107.278a.4.4 0 0 0 .258.085c.162 0 .31-.047.446-.142.136-.095.206-.267.211-.518v-.278zm-.454-.35c.138-.017.237-.039.297-.065.107-.046.16-.117.16-.213 0-.117-.04-.198-.122-.243a.763.763 0 0 0-.359-.067c-.177 0-.302.044-.376.131a.546.546 0 0 0-.105.263h-.722c.016-.25.086-.456.21-.617.198-.253.538-.379 1.02-.379.313 0 .591.062.835.187.243.124.365.359.365.704v1.314c0 .09.002.201.005.33.006.099.02.165.045.2a.268.268 0 0 0 .11.087v.11h-.814a.834.834 0 0 1-.047-.162 1.964 1.964 0 0 1-.021-.174 1.538 1.538 0 0 1-.358.287c-.16.092-.343.139-.546.139a.94.94 0 0 1-.643-.222c-.169-.148-.253-.358-.253-.63 0-.352.136-.606.407-.764.149-.086.368-.147.657-.184l.255-.032zm2.451.828c.016.133.05.228.103.284.092.1.264.15.515.15a.785.785 0 0 0 .35-.066c.087-.044.13-.11.13-.197a.212.212 0 0 0-.105-.192c-.07-.044-.33-.119-.78-.226-.324-.08-.553-.181-.686-.302-.133-.12-.2-.29-.2-.515 0-.264.104-.492.312-.682.207-.19.5-.285.876-.285.357 0 .649.072.874.214.225.143.354.39.387.74h-.749a.443.443 0 0 0-.081-.229c-.082-.101-.222-.152-.42-.152-.163 0-.28.025-.348.076-.07.05-.104.11-.104.179 0 .086.037.148.11.186.074.04.334.11.78.208.298.07.522.176.67.318.148.143.221.323.221.538a.87.87 0 0 1-.316.695c-.212.18-.538.27-.98.27-.45 0-.782-.095-.996-.285a.927.927 0 0 1-.322-.727h.76zm3.136-1.245a.813.813 0 0 0-.18.441h1.164c-.012-.198-.072-.348-.18-.45a.559.559 0 0 0-.4-.154.509.509 0 0 0-.404.163zm1.047-.647c.19.09.349.23.473.423.112.17.185.367.218.592.02.13.027.32.024.567h-1.96c.01.287.1.489.27.604a.637.637 0 0 0 .373.108c.154 0 .28-.044.376-.131a.624.624 0 0 0 .14-.197h.764c-.02.17-.108.342-.265.517-.246.279-.589.418-1.03.418-.365 0-.686-.117-.965-.352-.278-.235-.417-.617-.417-1.146 0-.495.125-.875.377-1.14.25-.264.577-.397.978-.397a1.5 1.5 0 0 1 .644.134zm1.46-1.053h.823v.982l-.213 1.808h-.391l-.218-1.808v-.982zm.02 3.1h.782v.76h-.783v-.76z" fill="#FFF"/>
        </g>
    </g>
</svg>
