<svg width="264" height="160" xmlns="http://www.w3.org/2000/svg">
    <defs>
        <linearGradient x1="100%" y1="100%" x2="0%" y2="0%" id="a">
            <stop stop-color="#3D41DA" offset="0%"/>
            <stop stop-color="#1EC6CE" offset="100%"/>
        </linearGradient>
    </defs>
    <g fill="none" fill-rule="evenodd">
        <rect fill="#DDD" x="200" width="64" height="160" rx="8"/>
        <rect fill="#DDD" width="192" height="160" rx="4"/>
        <path d="M4 14h184a2 2 0 0 1 2 2v140a2 2 0 0 1-2 2H4a2 2 0 0 1-2-2V16a2 2 0 0 1 2-2z" fill="#FFF"/>
        <rect fill="#FFF" x="202" y="16" width="60" height="128" rx="2"/>
        <path d="M210 36a4 4 0 1 1 0-8 4 4 0 0 1 0 8zm8-6h31v4h-31v-4zm-12 11h52v8h-52v-8zm0 12h36v8h-36v-8zm0 20h52v4h-52v-4zm0 8h48v4h-48v-4zm0 8h52v4h-52v-4zm0 8h48v4h-48v-4zm0 8h52v4h-52v-4zm0 8h48v4h-48v-4z" fill="#EEE"/>
        <rect fill="#BFBFBF" x="216" y="9" width="32" height="2" rx="1"/>
        <rect fill="#BFBFBF" x="228" y="4" width="8" height="2" rx="1"/>
        <circle fill="#BFBFBF" cx="7" cy="7" r="2"/>
        <circle fill="#BFBFBF" cx="13" cy="7" r="2"/>
        <circle fill="#BFBFBF" cx="19" cy="7" r="2"/>
        <path d="M49 44a8 8 0 1 1 0-16 8 8 0 0 1 0 16zm16-12h39v8H65v-8zM41 57h87v10H41V57zm0 16h71v10H41V73zm0 24h111v4H41v-4zm0 8h103v4H41v-4zm0 8h111v4H41v-4zm0 8h103v4H41v-4zm0 8h111v4H41v-4zm0 8h103v4H41v-4z" fill="#EEE"/>
        <rect fill="#BFBFBF" x="216" y="151" width="32" height="2" rx="1"/>
        <path d="M4 14h184a2 2 0 0 1 2 2v140a2 2 0 0 1-2 2H4a2 2 0 0 1-2-2V16a2 2 0 0 1 2-2zM204 16h56a2 2 0 0 1 2 2v124a2 2 0 0 1-2 2h-56a2 2 0 0 1-2-2V18a2 2 0 0 1 2-2z" fill="#FFF" opacity=".5"/>
        <g>
            <path fill="url(#a)" d="M0 0h56v88H0z" transform="translate(204 38)"/>
            <path fill="#FFF" d="M206 74h52v20h-52z"/>
            <path fill="#BFBFBF" d="M206 96h52v20h-52z"/>
        </g>
        <path d="M208.078 53.504c0 .17.031.314.093.433a.806.806 0 0 0 .244.287c.102.073.221.128.359.163.137.036.279.053.425.053.1 0 .206-.008.32-.025a1.11 1.11 0 0 0 .319-.095.696.696 0 0 0 .248-.195.49.49 0 0 0 .1-.316.444.444 0 0 0-.132-.333 1.04 1.04 0 0 0-.344-.213 3.434 3.434 0 0 0-.482-.15c-.18-.042-.362-.089-.547-.141a4.85 4.85 0 0 1-.553-.174 1.9 1.9 0 0 1-.482-.266 1.253 1.253 0 0 1-.344-.408 1.238 1.238 0 0 1-.131-.592c0-.26.055-.486.166-.677a1.51 1.51 0 0 1 .436-.48c.18-.127.383-.221.61-.283.227-.061.454-.092.681-.092.265 0 .52.03.763.089s.46.155.649.287c.19.132.34.301.45.507.111.206.167.455.167.748h-1.078a.895.895 0 0 0-.096-.376.627.627 0 0 0-.216-.234.915.915 0 0 0-.309-.12 1.9 1.9 0 0 0-.38-.036c-.09 0-.179.01-.269.029a.721.721 0 0 0-.245.099.616.616 0 0 0-.18.177.476.476 0 0 0-.071.27c0 .1.019.18.056.241a.506.506 0 0 0 .224.17c.111.052.265.104.46.156.197.052.454.119.77.199.095.019.226.053.394.103.168.05.335.129.5.237.166.11.309.255.43.437.12.182.18.415.18.698 0 .232-.045.447-.135.646-.09.198-.223.37-.4.514a1.927 1.927 0 0 1-.66.337c-.262.08-.566.12-.911.12a3.2 3.2 0 0 1-.813-.102 2.043 2.043 0 0 1-.695-.323 1.594 1.594 0 0 1-.478-.56 1.673 1.673 0 0 1-.17-.809h1.077zm4.774-2.554h-1.007v-.83h1.007v.83zm-1.007.568h1.007v3.667h-1.007v-3.667zm3.511 2.802a.786.786 0 0 0 .645-.312c.071-.095.125-.203.16-.323.036-.12.053-.247.053-.38a2.08 2.08 0 0 0-.042-.429 1.072 1.072 0 0 0-.142-.358.734.734 0 0 0-.263-.248.828.828 0 0 0-.411-.092.738.738 0 0 0-.365.085.768.768 0 0 0-.256.23.972.972 0 0 0-.149.334c-.03.125-.046.256-.046.393 0 .133.013.264.04.394.025.13.07.247.134.351a.713.713 0 0 0 .642.355zm1.816.631c0 .147-.02.314-.06.504-.04.189-.127.365-.26.528a1.543 1.543 0 0 1-.574.415c-.25.114-.586.17-1.007.17-.18 0-.363-.022-.55-.067a1.746 1.746 0 0 1-.51-.21 1.255 1.255 0 0 1-.384-.365 1.059 1.059 0 0 1-.173-.535h1c.047.189.14.32.276.393.138.074.296.11.476.11.283 0 .49-.085.62-.255.13-.17.193-.385.188-.645v-.483h-.014a.997.997 0 0 1-.464.43 1.505 1.505 0 0 1-.635.138c-.275 0-.511-.049-.71-.146a1.346 1.346 0 0 1-.49-.397 1.657 1.657 0 0 1-.28-.589 2.79 2.79 0 0 1-.088-.713c0-.236.034-.464.103-.684.068-.22.169-.414.301-.582.133-.168.297-.301.493-.4.197-.1.422-.15.678-.15.24 0 .453.046.635.135.182.09.334.242.457.454h.014v-.49h.958v3.434zm.808-3.433h.958v.51h.021c.128-.212.294-.367.497-.464.203-.097.411-.145.624-.145.27 0 .49.036.663.11a.983.983 0 0 1 .408.305c.1.13.17.288.21.475.04.187.06.393.06.62v2.256h-1.008v-2.071c0-.303-.047-.529-.141-.677-.095-.15-.263-.224-.504-.224-.274 0-.473.082-.596.245-.123.163-.184.431-.184.805v1.922h-1.008v-3.667zm9.619 3.667h-.958v-.51h-.021a1.133 1.133 0 0 1-.497.46 1.465 1.465 0 0 1-.624.142c-.27 0-.49-.035-.663-.106a.957.957 0 0 1-.408-.302 1.18 1.18 0 0 1-.21-.475 2.956 2.956 0 0 1-.06-.62v-2.256h1.008v2.071c0 .303.047.529.142.678.094.148.262.223.503.223.275 0 .473-.082.596-.245.123-.163.185-.431.185-.805v-1.922h1.007v3.667zm2.617-.66a.799.799 0 0 0 .415-.099.807.807 0 0 0 .27-.259c.068-.106.117-.23.145-.372a2.2 2.2 0 0 0 .043-.433c0-.146-.016-.29-.046-.433a1.152 1.152 0 0 0-.153-.379.763.763 0 0 0-.68-.372.777.777 0 0 0-.416.102.828.828 0 0 0-.27.266 1.104 1.104 0 0 0-.145.376 2.237 2.237 0 0 0-.042.44c0 .147.015.291.046.433.03.142.08.266.149.372.068.107.16.193.273.26.113.065.25.098.411.098zm-1.851-3.007h.957v.468h.015c.123-.199.279-.343.468-.433.189-.09.397-.134.624-.134.288 0 .537.054.745.163.208.109.38.253.518.432.137.18.238.39.305.628.066.239.099.488.099.749 0 .245-.033.482-.1.709a1.806 1.806 0 0 1-.3.603 1.494 1.494 0 0 1-.504.418 1.515 1.515 0 0 1-.706.156c-.227 0-.436-.046-.628-.138a1.188 1.188 0 0 1-.472-.408h-.014v1.738h-1.007v-4.951zm6.526.674h-.603v-.674h.603v-.284c0-.326.101-.593.305-.801.203-.208.51-.312.922-.312.09 0 .18.003.27.01l.262.018v.752a3.095 3.095 0 0 0-.37-.021c-.136 0-.234.031-.294.095-.059.064-.088.172-.088.323v.22h.695v.674h-.695v2.993h-1.007v-2.993zm3.035 1.163c0 .147.015.29.043.43.028.139.077.264.145.375.069.111.16.2.274.266.113.066.255.1.425.1.17 0 .313-.034.43-.1a.766.766 0 0 0 .276-.266c.068-.111.117-.236.145-.376a2.148 2.148 0 0 0 0-.862 1.104 1.104 0 0 0-.145-.376.806.806 0 0 0-.277-.266.83.83 0 0 0-.429-.102.81.81 0 0 0-.425.102.817.817 0 0 0-.274.266 1.104 1.104 0 0 0-.145.376 2.2 2.2 0 0 0-.043.433zm-1.007 0c0-.293.045-.56.135-.798.09-.239.218-.442.383-.61.166-.168.364-.298.596-.39.232-.092.492-.138.78-.138.289 0 .55.046.784.138.234.092.434.222.6.39.165.168.292.371.382.61.09.239.135.505.135.798 0 .293-.045.558-.135.795-.09.236-.217.438-.383.606a1.67 1.67 0 0 1-.6.387c-.233.09-.494.134-.783.134-.288 0-.548-.045-.78-.134a1.676 1.676 0 0 1-.596-.387 1.723 1.723 0 0 1-.383-.606 2.222 2.222 0 0 1-.135-.795zm4.448-1.837h.957v.68h.014a1.239 1.239 0 0 1 .469-.563c.104-.069.215-.122.333-.16.118-.037.241-.056.369-.056.066 0 .14.011.22.035v.936a1.935 1.935 0 0 0-.362-.035c-.184 0-.34.03-.468.092a.81.81 0 0 0-.309.252 1.01 1.01 0 0 0-.166.372c-.034.142-.05.296-.05.461v1.653h-1.007v-3.667zm5.625 1.837c0 .147.014.29.042.43.028.139.077.264.146.375.068.111.16.2.273.266.113.066.255.1.425.1.17 0 .313-.034.43-.1a.766.766 0 0 0 .276-.266c.069-.111.117-.236.145-.376a2.148 2.148 0 0 0 0-.862 1.104 1.104 0 0 0-.145-.376.806.806 0 0 0-.277-.266.83.83 0 0 0-.429-.102.81.81 0 0 0-.425.102.817.817 0 0 0-.273.266 1.104 1.104 0 0 0-.146.376 2.2 2.2 0 0 0-.042.433zm-1.008 0c0-.293.045-.56.135-.798.09-.239.218-.442.383-.61.166-.168.364-.298.596-.39.232-.092.492-.138.78-.138.289 0 .55.046.784.138.234.092.434.222.6.39.165.168.293.371.382.61.09.239.135.505.135.798 0 .293-.045.558-.135.795-.09.236-.217.438-.383.606a1.67 1.67 0 0 1-.599.387c-.234.09-.495.134-.784.134-.288 0-.548-.045-.78-.134a1.676 1.676 0 0 1-.596-.387 1.723 1.723 0 0 1-.383-.606 2.222 2.222 0 0 1-.135-.795zm7.888 1.83h-.958v-.51h-.02a1.133 1.133 0 0 1-.497.46 1.465 1.465 0 0 1-.625.142c-.27 0-.49-.035-.663-.106a.957.957 0 0 1-.408-.302 1.18 1.18 0 0 1-.209-.475 2.956 2.956 0 0 1-.06-.62v-2.256h1.007v2.071c0 .303.047.529.142.678.094.148.262.223.503.223.275 0 .473-.082.596-.245.123-.163.185-.431.185-.805v-1.922h1.007v3.667zm.766-3.667h.958v.68h.014a1.239 1.239 0 0 1 .468-.563c.104-.069.215-.122.333-.16.118-.037.241-.056.37-.056.065 0 .139.011.219.035v.936a1.935 1.935 0 0 0-.362-.035c-.184 0-.34.03-.468.092a.81.81 0 0 0-.308.252 1.01 1.01 0 0 0-.167.372c-.033.142-.05.296-.05.461v1.653h-1.007v-3.667zm-41.112 8.423h.958v.51h.02c.129-.212.294-.367.497-.464.204-.097.412-.145.625-.145.27 0 .49.036.663.11a.983.983 0 0 1 .408.305c.099.13.169.288.209.475.04.187.06.394.06.62v2.256h-1.007v-2.071c0-.303-.047-.528-.142-.677-.094-.15-.262-.224-.504-.224-.274 0-.472.082-.595.245-.123.163-.185.431-.185.805v1.922h-1.007v-3.667zm6.675 1.44c-.048-.255-.132-.45-.252-.582-.12-.132-.304-.198-.55-.198a.876.876 0 0 0-.4.081.74.74 0 0 0-.39.458c-.027.09-.042.17-.047.241h1.639zm-1.639.638c.014.327.097.563.248.71.152.146.37.22.653.22.203 0 .378-.051.525-.153.146-.102.236-.21.27-.323h.886c-.142.44-.36.755-.653.944-.293.189-.647.283-1.064.283-.288 0-.548-.046-.78-.138a1.622 1.622 0 0 1-.588-.394 1.772 1.772 0 0 1-.373-.61 2.233 2.233 0 0 1-.131-.78c0-.274.045-.53.135-.766.09-.236.217-.44.383-.613.165-.173.363-.309.592-.408a1.9 1.9 0 0 1 .763-.15c.312 0 .584.061.815.182.232.12.422.282.571.486.15.203.257.435.323.695.066.26.09.532.07.815h-2.645zm7.434 1.59h-1.036l-.652-2.462h-.015l-.624 2.461h-1.042l-1.164-3.667h1.064l.674 2.49h.014l.61-2.49h.98l.623 2.483h.015l.673-2.483h1.036l-1.156 3.667zm2.362-1.192a.552.552 0 0 0 .241.471c.07.05.152.087.245.11a1.152 1.152 0 0 0 .51.01.76.76 0 0 0 .213-.077.484.484 0 0 0 .16-.142.373.373 0 0 0 .064-.223c0-.152-.1-.265-.302-.34a6.02 6.02 0 0 0-.84-.228 4.972 4.972 0 0 1-.43-.117 1.466 1.466 0 0 1-.372-.177.862.862 0 0 1-.262-.277.784.784 0 0 1-.1-.408c0-.236.046-.43.139-.581a1.02 1.02 0 0 1 .365-.359c.151-.087.322-.149.51-.184a3.15 3.15 0 0 1 1.16.004c.187.037.354.101.5.191.147.09.269.21.366.358.097.15.155.337.174.564h-.958c-.014-.194-.088-.325-.22-.394a1.005 1.005 0 0 0-.468-.102c-.057 0-.118.003-.184.01a.616.616 0 0 0-.181.046.372.372 0 0 0-.139.103.272.272 0 0 0-.056.181c0 .09.033.163.099.22a.766.766 0 0 0 .259.138c.106.036.228.068.365.096a17 17 0 0 1 .419.092c.146.033.29.074.429.12.14.048.263.11.372.189a.909.909 0 0 1 .263.29c.066.116.099.26.099.43 0 .24-.049.443-.146.606a1.164 1.164 0 0 1-.379.394c-.156.1-.335.169-.536.21a3.12 3.12 0 0 1-1.237-.004 1.648 1.648 0 0 1-.543-.213c-.158-.1-.288-.23-.39-.394a1.233 1.233 0 0 1-.167-.613h.958zm3.057-3.873h1.007v5.064h-1.007v-5.064zm4.27 2.837c-.047-.255-.131-.45-.252-.582-.12-.132-.304-.198-.55-.198a.876.876 0 0 0-.4.081.74.74 0 0 0-.39.458c-.026.09-.042.17-.046.241h1.638zm-1.638.638c.014.327.096.563.248.71.151.146.369.22.652.22.204 0 .379-.051.525-.153.147-.102.237-.21.27-.323h.886c-.141.44-.359.755-.652.944-.293.189-.648.283-1.064.283-.289 0-.549-.046-.78-.138a1.622 1.622 0 0 1-.59-.394 1.772 1.772 0 0 1-.371-.61 2.233 2.233 0 0 1-.132-.78c0-.274.045-.53.135-.766.09-.236.218-.44.383-.613.166-.173.363-.309.592-.408a1.9 1.9 0 0 1 .763-.15c.312 0 .584.061.816.182.231.12.422.282.57.486.15.203.257.435.323.695.067.26.09.532.071.815h-2.645zm4.518-2.078h.738v.674h-.738v1.816c0 .17.028.283.085.34.057.057.17.085.34.085a1.803 1.803 0 0 0 .313-.028v.78c-.086.014-.18.024-.284.029a6.72 6.72 0 0 1-.305.007 2.94 2.94 0 0 1-.444-.032 1.045 1.045 0 0 1-.368-.124.657.657 0 0 1-.252-.263.937.937 0 0 1-.092-.447v-2.163h-.61v-.674h.61v-1.1h1.007v1.1zm2.497 0h.737v.674h-.737v1.816c0 .17.028.283.085.34.057.057.17.085.34.085a1.803 1.803 0 0 0 .312-.028v.78c-.085.014-.18.024-.283.029a6.72 6.72 0 0 1-.305.007 2.94 2.94 0 0 1-.444-.032 1.045 1.045 0 0 1-.369-.124.657.657 0 0 1-.251-.263.937.937 0 0 1-.093-.447v-2.163h-.61v-.674h.61v-1.1h1.008v1.1zm3.688 1.44c-.047-.255-.131-.45-.252-.582-.12-.132-.304-.198-.55-.198a.876.876 0 0 0-.4.081.74.74 0 0 0-.39.458c-.026.09-.042.17-.046.241h1.638zm-1.638.638c.014.327.097.563.248.71.151.146.369.22.652.22.204 0 .379-.051.525-.153.147-.102.237-.21.27-.323h.886c-.141.44-.359.755-.652.944-.293.189-.648.283-1.064.283-.289 0-.549-.046-.78-.138a1.622 1.622 0 0 1-.589-.394 1.772 1.772 0 0 1-.372-.61 2.233 2.233 0 0 1-.132-.78c0-.274.045-.53.135-.766.09-.236.218-.44.383-.613.166-.173.363-.309.592-.408a1.9 1.9 0 0 1 .763-.15c.312 0 .584.061.816.182.231.12.422.282.57.486.15.203.257.435.323.695.067.26.09.532.071.815h-2.645zm3.241-2.078h.958v.681h.014a1.239 1.239 0 0 1 .468-.564c.104-.068.215-.122.333-.16.119-.037.242-.056.37-.056.065 0 .139.012.22.035v.937a1.935 1.935 0 0 0-.363-.036c-.184 0-.34.03-.468.092a.81.81 0 0 0-.308.252 1.01 1.01 0 0 0-.167.372c-.033.142-.05.296-.05.462v1.652h-1.007v-3.667zm2.81 2.575h1.113v1.092h-1.114v-1.092zm1.077-2.61l-.276 2.184h-.504l-.27-2.184v-1.362h1.05v1.362z" fill="#FFF"/>
        <path d="M213 82h2.958v.48h-2.388v1.362h2.226v.48h-2.226v1.482h2.406v.48H213V82zm3.582 1.182h.48v.456h.012c.232-.352.566-.528 1.002-.528.192 0 .366.04.522.12.156.08.266.216.33.408.104-.168.241-.298.411-.39a1.16 1.16 0 0 1 .561-.138c.156 0 .297.017.423.051a.877.877 0 0 1 .324.159.72.72 0 0 1 .21.279c.05.114.075.251.075.411v2.274h-.51V84.25c0-.096-.008-.186-.024-.27a.551.551 0 0 0-.09-.219.45.45 0 0 0-.183-.147.727.727 0 0 0-.303-.054c-.252 0-.45.072-.594.216-.144.144-.216.336-.216.576v1.932h-.51V84.25c0-.1-.009-.192-.027-.276a.586.586 0 0 0-.093-.219.434.434 0 0 0-.177-.144.686.686 0 0 0-.285-.051.762.762 0 0 0-.381.09.863.863 0 0 0-.447.702v1.932h-.51v-3.102zm7.866 3.09a.721.721 0 0 1-.366.078.439.439 0 0 1-.315-.111c-.078-.074-.117-.195-.117-.363a1.22 1.22 0 0 1-.489.363 1.616 1.616 0 0 1-.603.111c-.14 0-.273-.016-.399-.048a.928.928 0 0 1-.327-.15.72.72 0 0 1-.219-.267.898.898 0 0 1-.081-.399c0-.176.03-.32.09-.432a.785.785 0 0 1 .237-.273c.098-.07.21-.123.336-.159.126-.036.255-.066.387-.09.14-.028.273-.049.399-.063.126-.014.237-.034.333-.06a.555.555 0 0 0 .228-.114c.056-.05.084-.123.084-.219a.509.509 0 0 0-.063-.27.432.432 0 0 0-.162-.156.659.659 0 0 0-.222-.072 1.677 1.677 0 0 0-.243-.018c-.216 0-.396.041-.54.123-.144.082-.222.237-.234.465h-.51c.008-.192.048-.354.12-.486a.91.91 0 0 1 .288-.321c.12-.082.257-.141.411-.177a2.17 2.17 0 0 1 .495-.054c.14 0 .279.01.417.03.138.02.263.061.375.123a.719.719 0 0 1 .27.261.835.835 0 0 1 .102.438v1.596c0 .12.007.208.021.264.014.056.061.084.141.084.044 0 .096-.01.156-.03v.396zm-.828-1.59a.635.635 0 0 1-.252.105c-.104.022-.213.04-.327.054-.114.014-.229.03-.345.048-.116.018-.22.047-.312.087a.568.568 0 0 0-.225.171.479.479 0 0 0-.087.303c0 .084.017.155.051.213a.425.425 0 0 0 .132.141.554.554 0 0 0 .189.078c.072.016.148.024.228.024.168 0 .312-.023.432-.069a.909.909 0 0 0 .294-.174.686.686 0 0 0 .168-.228.577.577 0 0 0 .054-.231v-.522zm1.842-2.058h-.51V82h.51v.624zm-.51.558h.51v3.102h-.51v-3.102zM226.284 82h.51v4.284h-.51V82z" fill="#BFBFBF"/>
        <g>
            <path fill="url(#a)" d="M0 0h124v80H0z" transform="translate(34 46)"/>
            <path fill="#FFF" d="M42 96h68v20H42z"/>
            <path fill="#BFBFBF" d="M114 96h36v20h-36z"/>
            <path d="M57.708 67.549c0 .27.048.498.146.685.097.187.226.339.387.455.161.116.35.202.568.258.217.057.441.085.674.085.157 0 .325-.013.505-.04.18-.026.348-.076.506-.151.157-.075.288-.178.393-.31a.775.775 0 0 0 .157-.499.704.704 0 0 0-.208-.528 1.648 1.648 0 0 0-.545-.337 5.437 5.437 0 0 0-.763-.236 21.104 21.104 0 0 1-.865-.224 7.68 7.68 0 0 1-.877-.276 3.01 3.01 0 0 1-.763-.42 1.984 1.984 0 0 1-.545-.647c-.139-.258-.208-.57-.208-.938 0-.412.088-.77.264-1.072.176-.304.406-.556.69-.759a3.01 3.01 0 0 1 .967-.449A4.11 4.11 0 0 1 59.269 62c.42 0 .822.047 1.208.14.385.094.728.246 1.027.455.3.21.538.478.714.803.176.326.264.721.264 1.186h-1.708a1.418 1.418 0 0 0-.151-.596.992.992 0 0 0-.343-.37 1.448 1.448 0 0 0-.489-.191 3.008 3.008 0 0 0-.6-.057c-.143 0-.285.015-.427.045-.143.03-.272.083-.388.158a.976.976 0 0 0-.286.28.754.754 0 0 0-.113.427c0 .158.03.285.09.382.06.098.178.187.354.27.176.082.42.164.73.247.311.082.717.187 1.219.314.15.03.358.085.623.163.266.079.53.204.792.377.262.172.489.402.68.69.19.289.286.657.286 1.107 0 .367-.07.707-.213 1.022a2.22 2.22 0 0 1-.635.814c-.28.229-.629.407-1.044.534a4.938 4.938 0 0 1-1.444.19c-.442 0-.87-.053-1.286-.162a3.235 3.235 0 0 1-1.1-.511 2.525 2.525 0 0 1-.759-.888c-.187-.359-.277-.786-.27-1.28h1.708zm7.56-4.044h-1.596v-1.314h1.595v1.314zm-1.596.899h1.595v5.807h-1.595v-5.807zm5.56 4.437c.225 0 .424-.045.596-.135.172-.09.314-.21.427-.36.112-.15.196-.32.252-.51.057-.192.085-.392.085-.602 0-.24-.023-.466-.068-.68a1.698 1.698 0 0 0-.224-.566 1.163 1.163 0 0 0-.416-.394c-.172-.097-.39-.146-.651-.146a1.17 1.17 0 0 0-.579.135c-.16.09-.296.212-.404.365a1.54 1.54 0 0 0-.236.528 2.608 2.608 0 0 0-.073.624c0 .21.02.417.062.623.04.206.112.391.213.556.101.165.234.3.399.404.165.105.37.158.618.158zm2.876 1c0 .232-.032.497-.095.797-.064.3-.2.578-.41.837-.21.258-.513.477-.91.657-.397.18-.929.27-1.595.27-.285 0-.575-.036-.87-.107a2.765 2.765 0 0 1-.81-.332 1.988 1.988 0 0 1-.606-.578 1.677 1.677 0 0 1-.275-.848h1.584c.074.3.22.507.438.623.217.116.468.174.752.174.45 0 .777-.134.983-.404.206-.27.305-.61.298-1.022v-.764h-.023a1.58 1.58 0 0 1-.735.68 2.383 2.383 0 0 1-1.006.219c-.434 0-.809-.077-1.123-.23a2.131 2.131 0 0 1-.775-.63 2.624 2.624 0 0 1-.444-.932 4.42 4.42 0 0 1-.14-1.129c0-.374.054-.736.163-1.084.108-.348.267-.655.477-.92.21-.267.47-.478.78-.636.311-.157.67-.235 1.073-.235.382 0 .717.07 1.006.213.288.142.53.382.724.719h.023v-.775h1.516v5.436zm1.28-5.437h1.517v.809h.034a1.83 1.83 0 0 1 .786-.736c.322-.154.652-.23.989-.23.426 0 .776.058 1.05.174.273.116.488.277.646.483.157.206.267.456.331.752s.096.624.096.983v3.572h-1.595v-3.28c0-.48-.075-.837-.225-1.073-.15-.235-.416-.353-.798-.353-.434 0-.749.129-.943.387-.195.258-.292.683-.292 1.275v3.044h-1.595v-5.807zM88.62 70.21h-1.516v-.809h-.034c-.202.337-.464.58-.786.73a2.32 2.32 0 0 1-.989.225c-.426 0-.777-.056-1.05-.168a1.516 1.516 0 0 1-.646-.478 1.87 1.87 0 0 1-.331-.752 4.68 4.68 0 0 1-.096-.983v-3.572h1.595v3.28c0 .479.075.837.225 1.072.15.236.416.354.798.354.434 0 .748-.129.943-.387.195-.259.292-.684.292-1.275v-3.044h1.595v5.807zm4.145-1.045c.262 0 .481-.052.657-.157.176-.105.319-.241.427-.41.109-.168.185-.365.23-.59.045-.224.068-.453.068-.685 0-.232-.025-.46-.073-.685a1.824 1.824 0 0 0-.242-.6 1.345 1.345 0 0 0-.432-.428 1.208 1.208 0 0 0-.646-.163 1.23 1.23 0 0 0-.657.163 1.311 1.311 0 0 0-.427.422c-.109.172-.185.37-.23.595a3.543 3.543 0 0 0-.068.696c0 .232.025.46.073.686.049.224.128.42.236.59.109.168.253.304.433.41.18.104.397.156.651.156zm-2.932-4.762h1.517v.741h.022c.195-.314.442-.543.742-.685.3-.142.629-.213.988-.213.457 0 .85.086 1.18.258.329.172.602.4.82.685.217.285.378.616.483.994.104.378.157.773.157 1.185 0 .39-.053.764-.157 1.124a2.86 2.86 0 0 1-.478.954c-.213.277-.48.498-.797.663-.319.165-.691.247-1.118.247-.36 0-.69-.073-.994-.219a1.882 1.882 0 0 1-.747-.646h-.023v2.752h-1.595v-7.84zm10.334 1.067h-.954v-1.067h.954v-.45c0-.516.161-.94.483-1.269.323-.33.81-.494 1.46-.494.143 0 .285.006.428.017.142.011.28.02.415.028v1.19a4.902 4.902 0 0 0-.584-.033c-.217 0-.372.05-.466.151-.094.102-.14.272-.14.512v.348h1.1v1.067h-1.1v4.74h-1.596v-4.74zm4.808 1.842c0 .232.023.459.067.68.045.22.122.419.23.595.11.176.253.316.433.421.18.105.405.157.674.157.27 0 .496-.052.68-.157.183-.105.33-.245.438-.421a1.81 1.81 0 0 0 .23-.595 3.485 3.485 0 0 0 0-1.365 1.748 1.748 0 0 0-.23-.595 1.277 1.277 0 0 0-.438-.422 1.314 1.314 0 0 0-.68-.163c-.27 0-.494.055-.674.163-.18.109-.324.25-.432.422-.109.172-.186.37-.23.595a3.485 3.485 0 0 0-.068.685zm-1.595 0c0-.464.071-.885.213-1.264.143-.378.345-.7.607-.966.262-.265.577-.471.944-.617a3.317 3.317 0 0 1 1.235-.22c.457 0 .87.074 1.241.22.371.146.687.352.95.617.262.266.464.588.606.966.142.379.214.8.214 1.264 0 .464-.072.884-.214 1.258a2.73 2.73 0 0 1-.606.96c-.263.266-.579.47-.95.613a3.44 3.44 0 0 1-1.24.213c-.458 0-.87-.071-1.236-.213a2.653 2.653 0 0 1-.944-.612 2.73 2.73 0 0 1-.607-.96 3.519 3.519 0 0 1-.213-1.259zm7.043-2.91h1.516v1.08h.023a1.987 1.987 0 0 1 .741-.893 2.14 2.14 0 0 1 .528-.254c.187-.06.382-.09.584-.09.105 0 .221.02.348.057v1.482a3.064 3.064 0 0 0-.572-.056 1.7 1.7 0 0 0-.742.146c-.202.098-.365.23-.488.4a1.599 1.599 0 0 0-.264.589 3.21 3.21 0 0 0-.079.73v2.617h-1.595v-5.807zm8.908 2.91c0 .232.022.459.067.68.045.22.122.419.23.595.109.176.253.316.433.421.18.105.404.157.674.157s.496-.052.68-.157c.183-.105.329-.245.437-.421a1.81 1.81 0 0 0 .23-.595 3.485 3.485 0 0 0 0-1.365 1.748 1.748 0 0 0-.23-.595 1.277 1.277 0 0 0-.438-.422 1.314 1.314 0 0 0-.68-.163c-.269 0-.494.055-.673.163-.18.109-.324.25-.433.422-.108.172-.185.37-.23.595a3.485 3.485 0 0 0-.067.685zm-1.596 0c0-.464.072-.885.214-1.264.142-.378.344-.7.606-.966.263-.265.577-.471.944-.617a3.317 3.317 0 0 1 1.236-.22c.456 0 .87.074 1.24.22.371.146.688.352.95.617.262.266.464.588.607.966.142.379.213.8.213 1.264 0 .464-.071.884-.213 1.258a2.73 2.73 0 0 1-.607.96c-.262.266-.579.47-.95.613a3.44 3.44 0 0 1-1.24.213c-.457 0-.87-.071-1.236-.213a2.653 2.653 0 0 1-.944-.612 2.73 2.73 0 0 1-.606-.96 3.519 3.519 0 0 1-.214-1.259zm12.491 2.898h-1.516v-.809h-.034c-.202.337-.464.58-.786.73a2.32 2.32 0 0 1-.989.225c-.426 0-.777-.056-1.05-.168a1.516 1.516 0 0 1-.646-.478 1.87 1.87 0 0 1-.331-.752 4.68 4.68 0 0 1-.096-.983v-3.572h1.595v3.28c0 .479.075.837.225 1.072.15.236.416.354.798.354.434 0 .748-.129.943-.387.195-.259.292-.684.292-1.275v-3.044h1.595v5.807zm1.213-5.807h1.517v1.078h.022a1.987 1.987 0 0 1 .741-.893 2.14 2.14 0 0 1 .529-.253c.187-.06.381-.09.584-.09.105 0 .22.02.348.057v1.482a3.064 3.064 0 0 0-.573-.056 1.7 1.7 0 0 0-.741.146c-.203.098-.365.23-.489.4a1.599 1.599 0 0 0-.264.589 3.21 3.21 0 0 0-.079.73v2.617h-1.595v-5.807zM66.335 77.743h1.516v.808h.034a1.83 1.83 0 0 1 .786-.735c.322-.154.651-.23.988-.23.427 0 .777.057 1.05.174.274.116.49.277.647.483.157.205.267.456.33.752.065.296.096.624.096.983v3.572h-1.595v-3.28c0-.48-.075-.837-.224-1.073-.15-.236-.416-.354-.798-.354-.434 0-.749.13-.943.388-.195.258-.292.683-.292 1.275v3.044h-1.595v-5.807zm10.57 2.28c-.075-.404-.208-.712-.4-.921-.19-.21-.48-.315-.87-.315-.254 0-.466.043-.634.13a1.173 1.173 0 0 0-.618.725 1.83 1.83 0 0 0-.073.38h2.595zm-2.595 1.01c.022.518.153.892.393 1.124.24.232.584.348 1.033.348.322 0 .6-.08.832-.241.232-.161.374-.332.426-.511h1.404c-.224.696-.569 1.194-1.033 1.494-.464.3-1.026.449-1.685.449-.457 0-.869-.073-1.235-.219a2.57 2.57 0 0 1-.933-.623 2.806 2.806 0 0 1-.59-.966 3.536 3.536 0 0 1-.207-1.236c0-.434.07-.839.213-1.213.142-.375.345-.699.607-.972s.574-.488.938-.646a3.008 3.008 0 0 1 1.207-.236c.494 0 .925.096 1.292.287.367.19.668.447.904.77.236.321.406.688.511 1.1a4.1 4.1 0 0 1 .113 1.292h-4.19zm11.772 2.517h-1.64l-1.034-3.898h-.022l-.989 3.898h-1.65l-1.843-5.807h1.685l1.067 3.942h.022l.966-3.942h1.55l.989 3.931h.023l1.067-3.931h1.64l-1.831 5.807zm3.74-1.887a.875.875 0 0 0 .382.747c.112.078.242.137.388.174.146.037.297.056.455.056.112 0 .23-.013.353-.04.124-.025.236-.067.337-.123a.766.766 0 0 0 .253-.224.59.59 0 0 0 .101-.354c0-.24-.159-.42-.477-.54-.318-.12-.762-.239-1.331-.359a7.873 7.873 0 0 1-.68-.185 2.322 2.322 0 0 1-.59-.281 1.366 1.366 0 0 1-.415-.438 1.241 1.241 0 0 1-.157-.646c0-.374.073-.681.219-.921.146-.24.338-.429.578-.567.24-.139.51-.236.809-.292.3-.057.606-.085.92-.085.315 0 .62.03.916.09.296.06.56.161.792.304.232.142.425.33.579.567.153.236.245.533.275.893h-1.516c-.023-.307-.139-.515-.349-.624a1.592 1.592 0 0 0-.741-.162c-.09 0-.187.005-.292.016a.975.975 0 0 0-.287.073.59.59 0 0 0-.219.163.43.43 0 0 0-.09.287c0 .142.053.258.158.348.105.09.241.163.41.219.168.056.361.107.578.152.217.045.438.093.663.146.232.052.459.116.68.19.22.075.417.175.59.298.172.124.31.277.415.46.105.184.157.41.157.68 0 .382-.077.702-.23.96a1.843 1.843 0 0 1-.601.624c-.247.157-.53.268-.848.332a4.942 4.942 0 0 1-1.96-.006 2.609 2.609 0 0 1-.86-.337 1.927 1.927 0 0 1-.617-.623c-.161-.259-.25-.583-.264-.972h1.516zm4.841-6.133h1.596v8.02h-1.596v-8.02zm6.763 4.493c-.075-.404-.208-.712-.4-.921-.19-.21-.48-.315-.87-.315-.254 0-.466.043-.634.13a1.173 1.173 0 0 0-.618.725 1.83 1.83 0 0 0-.073.38h2.595zm-2.595 1.01c.022.518.153.892.393 1.124.24.232.584.348 1.033.348.322 0 .6-.08.832-.241.232-.161.374-.332.426-.511h1.405c-.225.696-.57 1.194-1.034 1.494-.464.3-1.026.449-1.685.449-.457 0-.868-.073-1.235-.219a2.57 2.57 0 0 1-.933-.623 2.806 2.806 0 0 1-.59-.966 3.536 3.536 0 0 1-.207-1.236c0-.434.07-.839.213-1.213.142-.375.345-.699.607-.972s.574-.488.938-.646a3.008 3.008 0 0 1 1.207-.236c.494 0 .925.096 1.292.287.367.19.668.447.904.77.236.321.406.688.511 1.1a4.1 4.1 0 0 1 .113 1.292h-4.19zm7.155-3.29h1.168v1.067h-1.168v2.875c0 .27.045.45.135.54.09.09.27.134.539.134a2.235 2.235 0 0 0 .494-.045v1.236a3.795 3.795 0 0 1-.45.045 10.64 10.64 0 0 1-.482.011c-.247 0-.481-.017-.702-.05-.221-.034-.416-.1-.584-.197a1.04 1.04 0 0 1-.399-.416c-.097-.18-.146-.415-.146-.707V78.81h-.966v-1.067h.966v-1.741h1.595v1.74zm3.954 0h1.168v1.067h-1.168v2.875c0 .27.045.45.135.54.09.09.27.134.539.134a2.235 2.235 0 0 0 .494-.045v1.236a3.795 3.795 0 0 1-.45.045 10.64 10.64 0 0 1-.482.011c-.247 0-.481-.017-.702-.05-.221-.034-.416-.1-.584-.197a1.04 1.04 0 0 1-.4-.416c-.096-.18-.145-.415-.145-.707V78.81h-.966v-1.067h.966v-1.741h1.595v1.74zm5.841 2.28c-.075-.404-.208-.712-.399-.921-.19-.21-.48-.315-.87-.315-.255 0-.466.043-.635.13a1.173 1.173 0 0 0-.618.725 1.83 1.83 0 0 0-.073.38h2.595zm-2.595 1.01c.023.518.154.892.393 1.124.24.232.584.348 1.034.348.322 0 .599-.08.831-.241.232-.161.374-.332.427-.511h1.404c-.225.696-.57 1.194-1.033 1.494-.465.3-1.026.449-1.685.449-.457 0-.87-.073-1.236-.219a2.57 2.57 0 0 1-.932-.623 2.806 2.806 0 0 1-.59-.966 3.536 3.536 0 0 1-.208-1.236c0-.434.071-.839.214-1.213.142-.375.344-.699.606-.972s.575-.488.938-.646a3.008 3.008 0 0 1 1.208-.236c.494 0 .924.096 1.291.287.367.19.669.447.905.77.235.321.406.688.51 1.1a4.1 4.1 0 0 1 .113 1.292h-4.19zm5.134-3.29h1.516v1.078h.022a1.987 1.987 0 0 1 .741-.893 2.14 2.14 0 0 1 .529-.253c.187-.06.382-.09.584-.09.105 0 .22.02.348.057v1.482a3.064 3.064 0 0 0-.573-.056 1.7 1.7 0 0 0-.741.146c-.202.097-.365.23-.489.399a1.599 1.599 0 0 0-.264.59 3.21 3.21 0 0 0-.078.73v2.617h-1.595v-5.807zm4.448 4.077h1.763v1.73h-1.763v-1.73zm1.707-4.134l-.438 3.46h-.798l-.426-3.46V75.53h1.662v2.156z" fill="#FFF"/>
            <path d="M48 104h2.958v.48H48.57v1.362h2.226v.48H48.57v1.482h2.406v.48H48V104zm3.582 1.182h.48v.456h.012c.232-.352.566-.528 1.002-.528.192 0 .366.04.522.12.156.08.266.216.33.408.104-.168.241-.298.411-.39a1.16 1.16 0 0 1 .561-.138c.156 0 .297.017.423.051a.877.877 0 0 1 .324.159.72.72 0 0 1 .21.279c.05.114.075.251.075.411v2.274h-.51v-2.034c0-.096-.008-.186-.024-.27a.551.551 0 0 0-.09-.219.45.45 0 0 0-.183-.147.727.727 0 0 0-.303-.054c-.252 0-.45.072-.594.216-.144.144-.216.336-.216.576v1.932h-.51v-2.034c0-.1-.009-.192-.027-.276a.586.586 0 0 0-.093-.219.434.434 0 0 0-.177-.144.686.686 0 0 0-.285-.051.762.762 0 0 0-.381.09.863.863 0 0 0-.447.702v1.932h-.51v-3.102zm7.866 3.09a.721.721 0 0 1-.366.078.439.439 0 0 1-.315-.111c-.078-.074-.117-.195-.117-.363a1.22 1.22 0 0 1-.489.363 1.616 1.616 0 0 1-.603.111c-.14 0-.273-.016-.399-.048a.928.928 0 0 1-.327-.15.72.72 0 0 1-.219-.267.898.898 0 0 1-.081-.399c0-.176.03-.32.09-.432a.785.785 0 0 1 .237-.273c.098-.07.21-.123.336-.159.126-.036.255-.066.387-.09.14-.028.273-.049.399-.063.126-.014.237-.034.333-.06a.555.555 0 0 0 .228-.114c.056-.05.084-.123.084-.219a.509.509 0 0 0-.063-.27.432.432 0 0 0-.162-.156.659.659 0 0 0-.222-.072 1.677 1.677 0 0 0-.243-.018c-.216 0-.396.041-.54.123-.144.082-.222.237-.234.465h-.51c.008-.192.048-.354.12-.486a.91.91 0 0 1 .288-.321c.12-.082.257-.141.411-.177a2.17 2.17 0 0 1 .495-.054c.14 0 .279.01.417.03.138.02.263.061.375.123a.719.719 0 0 1 .27.261.835.835 0 0 1 .102.438v1.596c0 .12.007.208.021.264.014.056.061.084.141.084.044 0 .096-.01.156-.03v.396zm-.828-1.59a.635.635 0 0 1-.252.105c-.104.022-.213.04-.327.054-.114.014-.229.03-.345.048-.116.018-.22.047-.312.087a.568.568 0 0 0-.225.171.479.479 0 0 0-.087.303c0 .084.017.155.051.213a.425.425 0 0 0 .132.141.554.554 0 0 0 .189.078c.072.016.148.024.228.024.168 0 .312-.023.432-.069a.909.909 0 0 0 .294-.174.686.686 0 0 0 .168-.228.577.577 0 0 0 .054-.231v-.522zm1.842-2.058h-.51V104h.51v.624zm-.51.558h.51v3.102h-.51v-3.102zM61.284 104h.51v4.284h-.51V104z" fill="#BFBFBF"/>
            <path d="M122.912 106.964c0 .144.026.266.078.366.052.1.121.181.207.243a.896.896 0 0 0 .303.138c.116.03.236.045.36.045.084 0 .174-.007.27-.021a.94.94 0 0 0 .27-.081.59.59 0 0 0 .21-.165.414.414 0 0 0 .084-.267.376.376 0 0 0-.11-.282.88.88 0 0 0-.292-.18 2.904 2.904 0 0 0-.408-.126 11.273 11.273 0 0 1-.462-.12 4.102 4.102 0 0 1-.468-.147 1.608 1.608 0 0 1-.408-.225 1.06 1.06 0 0 1-.29-.345 1.047 1.047 0 0 1-.112-.501c0-.22.047-.411.141-.573.094-.162.217-.297.37-.405.151-.108.323-.188.515-.24.192-.052.384-.078.576-.078.224 0 .44.025.645.075.206.05.39.131.55.243.16.112.286.255.38.429.094.174.141.385.141.633h-.912a.757.757 0 0 0-.08-.318.53.53 0 0 0-.184-.198.774.774 0 0 0-.26-.102 1.607 1.607 0 0 0-.322-.03c-.076 0-.152.008-.228.024a.61.61 0 0 0-.207.084.521.521 0 0 0-.153.15.403.403 0 0 0-.06.228c0 .084.016.152.048.204.032.052.095.1.19.144.093.044.223.088.39.132.165.044.382.1.65.168.08.016.191.045.333.087.142.042.283.109.423.201.14.092.261.215.363.369.102.154.153.351.153.591 0 .196-.038.378-.114.546a1.186 1.186 0 0 1-.339.435 1.63 1.63 0 0 1-.558.285 2.638 2.638 0 0 1-.77.102c-.237 0-.466-.029-.688-.087a1.728 1.728 0 0 1-.588-.273 1.349 1.349 0 0 1-.405-.474c-.1-.192-.148-.42-.144-.684h.912zm6.072 1.422h-.81v-.432h-.018a.958.958 0 0 1-.42.39 1.24 1.24 0 0 1-.528.12 1.49 1.49 0 0 1-.56-.09.81.81 0 0 1-.346-.255.998.998 0 0 1-.177-.402 2.5 2.5 0 0 1-.05-.525v-1.908h.851v1.752c0 .256.04.447.12.573.08.126.222.189.426.189.232 0 .4-.069.504-.207.104-.138.156-.365.156-.681v-1.626h.852v3.102zm2.922-1.548c0-.132-.014-.258-.042-.378a.988.988 0 0 0-.132-.318.624.624 0 0 0-.552-.3.628.628 0 0 0-.552.3.988.988 0 0 0-.132.318 1.659 1.659 0 0 0 0 .75c.028.12.072.226.132.318a.628.628 0 0 0 .552.3.624.624 0 0 0 .552-.3.988.988 0 0 0 .132-.318c.028-.12.042-.244.042-.372zm-2.274-2.736h.852v1.56h.012a.91.91 0 0 1 .423-.351c.178-.074.363-.111.555-.111a1.18 1.18 0 0 1 .873.39c.122.132.221.301.297.507.076.206.114.451.114.735s-.038.529-.114.735a1.503 1.503 0 0 1-.297.507 1.183 1.183 0 0 1-.873.39c-.228 0-.432-.036-.612-.108a.777.777 0 0 1-.408-.366h-.012v.396h-.81v-4.284zm3.69 1.182h.804v.42h.012c.112-.16.247-.284.405-.372.158-.088.34-.132.543-.132.196 0 .375.038.537.114.162.076.285.21.37.402a1.32 1.32 0 0 1 .374-.36.997.997 0 0 1 .561-.156c.164 0 .316.02.456.06.14.04.26.104.36.192a.88.88 0 0 1 .234.345 1.4 1.4 0 0 1 .084.513v2.076h-.852v-1.758a3.4 3.4 0 0 0-.012-.294.624.624 0 0 0-.066-.24.4.4 0 0 0-.159-.162.575.575 0 0 0-.285-.06.545.545 0 0 0-.29.069.5.5 0 0 0-.175.18.72.72 0 0 0-.084.252 1.932 1.932 0 0 0-.02.285v1.728h-.853v-1.74c0-.092-.002-.183-.006-.273a.766.766 0 0 0-.05-.249.383.383 0 0 0-.15-.183.566.566 0 0 0-.31-.069.638.638 0 0 0-.159.027.528.528 0 0 0-.192.102.596.596 0 0 0-.159.216.877.877 0 0 0-.066.369v1.8h-.852v-3.102zm6.288-.48h-.852v-.702h.852v.702zm-.852.48h.852v3.102h-.852v-3.102zm2.604 0h.624v.57h-.624v1.536c0 .144.024.24.072.288.048.048.144.072.288.072a1.525 1.525 0 0 0 .264-.024v.66c-.072.012-.152.02-.24.024a5.684 5.684 0 0 1-.258.006c-.132 0-.257-.009-.375-.027a.884.884 0 0 1-.312-.105.556.556 0 0 1-.213-.222.793.793 0 0 1-.078-.378v-1.83h-.516v-.57h.516v-.93h.852v.93z" fill="#FFF"/>
        </g>
        <path d="M220.912 106.964c0 .144.026.266.078.366.052.1.121.181.207.243a.896.896 0 0 0 .303.138c.116.03.236.045.36.045.084 0 .174-.007.27-.021a.94.94 0 0 0 .27-.081.59.59 0 0 0 .21-.165.414.414 0 0 0 .084-.267.376.376 0 0 0-.11-.282.88.88 0 0 0-.292-.18 2.904 2.904 0 0 0-.408-.126 11.273 11.273 0 0 1-.462-.12 4.102 4.102 0 0 1-.468-.147 1.608 1.608 0 0 1-.408-.225 1.06 1.06 0 0 1-.29-.345 1.047 1.047 0 0 1-.112-.501c0-.22.047-.411.141-.573.094-.162.217-.297.37-.405.151-.108.323-.188.515-.24.192-.052.384-.078.576-.078.224 0 .44.025.645.075.206.05.39.131.55.243.16.112.286.255.38.429.094.174.141.385.141.633h-.912a.757.757 0 0 0-.08-.318.53.53 0 0 0-.184-.198.774.774 0 0 0-.26-.102 1.607 1.607 0 0 0-.322-.03c-.076 0-.152.008-.228.024a.61.61 0 0 0-.207.084.521.521 0 0 0-.153.15.403.403 0 0 0-.06.228c0 .084.016.152.048.204.032.052.095.1.19.144.093.044.223.088.39.132.165.044.382.1.65.168.08.016.191.045.333.087.142.042.283.109.423.201.14.092.261.215.363.369.102.154.153.351.153.591 0 .196-.038.378-.114.546a1.186 1.186 0 0 1-.339.435 1.63 1.63 0 0 1-.558.285 2.638 2.638 0 0 1-.77.102c-.237 0-.466-.029-.688-.087a1.728 1.728 0 0 1-.588-.273 1.349 1.349 0 0 1-.405-.474c-.1-.192-.148-.42-.144-.684h.912zm6.072 1.422h-.81v-.432h-.018a.958.958 0 0 1-.42.39 1.24 1.24 0 0 1-.528.12 1.49 1.49 0 0 1-.56-.09.81.81 0 0 1-.346-.255.998.998 0 0 1-.177-.402 2.5 2.5 0 0 1-.05-.525v-1.908h.851v1.752c0 .256.04.447.12.573.08.126.222.189.426.189.232 0 .4-.069.504-.207.104-.138.156-.365.156-.681v-1.626h.852v3.102zm2.922-1.548c0-.132-.014-.258-.042-.378a.987.987 0 0 0-.132-.318.624.624 0 0 0-.552-.3.628.628 0 0 0-.552.3.987.987 0 0 0-.132.318 1.659 1.659 0 0 0 0 .75c.028.12.072.226.132.318a.628.628 0 0 0 .552.3.624.624 0 0 0 .552-.3.987.987 0 0 0 .132-.318c.028-.12.042-.244.042-.372zm-2.274-2.736h.852v1.56h.012a.91.91 0 0 1 .423-.351c.178-.074.363-.111.555-.111a1.18 1.18 0 0 1 .873.39c.122.132.221.301.297.507.076.206.114.451.114.735s-.038.529-.114.735a1.503 1.503 0 0 1-.297.507 1.183 1.183 0 0 1-.873.39c-.228 0-.432-.036-.612-.108a.777.777 0 0 1-.408-.366h-.012v.396h-.81v-4.284zm3.69 1.182h.804v.42h.012c.112-.16.247-.284.405-.372.158-.088.34-.132.543-.132.196 0 .375.038.537.114.162.076.285.21.37.402a1.32 1.32 0 0 1 .374-.36.997.997 0 0 1 .561-.156c.164 0 .316.02.456.06.14.04.26.104.36.192a.88.88 0 0 1 .234.345 1.4 1.4 0 0 1 .084.513v2.076h-.852v-1.758a3.4 3.4 0 0 0-.012-.294.624.624 0 0 0-.066-.24.4.4 0 0 0-.159-.162.575.575 0 0 0-.285-.06.545.545 0 0 0-.29.069.5.5 0 0 0-.175.18.72.72 0 0 0-.084.252 1.932 1.932 0 0 0-.02.285v1.728h-.853v-1.74c0-.092-.002-.183-.006-.273a.766.766 0 0 0-.05-.249.383.383 0 0 0-.15-.183.566.566 0 0 0-.31-.069.638.638 0 0 0-.159.027.528.528 0 0 0-.192.102.596.596 0 0 0-.159.216.877.877 0 0 0-.066.369v1.8h-.852v-3.102zm6.288-.48h-.852v-.702h.852v.702zm-.852.48h.852v3.102h-.852v-3.102zm2.604 0h.624v.57h-.624v1.536c0 .144.024.24.072.288.048.048.144.072.288.072a1.525 1.525 0 0 0 .264-.024v.66c-.072.012-.152.02-.24.024a5.684 5.684 0 0 1-.258.006c-.132 0-.257-.009-.375-.027a.884.884 0 0 1-.312-.105.556.556 0 0 1-.213-.222.793.793 0 0 1-.078-.378v-1.83h-.516v-.57h.516v-.93h.852v.93z" fill="#FFF"/>
    </g>
</svg>
