<svg width="32px" height="32px" viewBox="0 0 32 32" version="1.1" xmlns="http://www.w3.org/2000/svg" xmlns:xlink="http://www.w3.org/1999/xlink">
                                <!-- Generator: Sketch 51 (57462) - http://www.bohemiancoding.com/sketch -->
                                <title>list-building-tab</title>
                                <desc>Created with Sketch.</desc>
                                <defs/>
                                <g id="Page-1" stroke="none" stroke-width="1" fill="none" fill-rule="evenodd">
                                    <g id="Homepage---desktop" transform="translate(-188.000000, -1225.000000)">
                                        <g id="Group-34" transform="translate(188.000000, 1225.000000)" fill="#1E1F44">
                                            <g id="Group-2" transform="translate(6.000000, 8.000000)">
                                                <path d="M20,14.8242565 C20,15.9505749 19.1017876,16.8636364 18.0092049,16.8636364 L1.99079514,16.8636364 C0.891309342,16.8636364 -4.54747351e-13,15.9487927 -4.54747351e-13,14.8242565 L-4.54747351e-13,6.64871367 C-4.54747351e-13,6.09679415 0.37636699,5.8739121 0.855806196,6.15994117 L8.75908632,10.8749662 C9.46974335,11.2989378 10.5305592,11.2987572 11.2409137,10.8749662 L19.1441938,6.15994117 C19.6168425,5.87796324 20,6.09189858 20,6.64871367 L20,14.8242565 Z M20,2.53937983 L20,2.87599741 C20,3.42173008 19.6144434,4.10337188 19.1388352,4.38711542 L10.4851071,9.54985088 C10.2417141,9.69505694 9.75842373,9.69513919 9.51489286,9.54985088 L0.86116484,4.38711542 C0.38477965,4.10290834 -4.54747351e-13,3.42682131 -4.54747351e-13,2.87599741 L-4.54747351e-13,2.53937983 C-4.54747351e-13,1.41306145 0.898212381,0.5 1.99079514,0.5 L18.0092049,0.5 C19.1086907,0.5 20,1.41484361 20,2.53937983 Z" id="Combined-Shape"/>
                                            </g>
                                        </g>
                                    </g>
                                </g>
                            </svg>