<svg width="288" height="176" xmlns="http://www.w3.org/2000/svg">
    <defs>
        <linearGradient x1="0%" y1="0%" y2="100%" id="a">
            <stop stop-color="#3D41DA" offset="0%"/>
            <stop stop-color="#FF5050" offset="100%"/>
        </linearGradient>
        <linearGradient x1="0%" y1="0%" y2="100%" id="b">
            <stop stop-color="#FF5050" offset="0%"/>
            <stop stop-color="#FF6550" offset="100%"/>
        </linearGradient>
    </defs>
    <g transform="translate(28)" fill="none" fill-rule="evenodd">
        <path d="M212 136c11.027 0 20 8.972 20 20 0 11.029-8.973 20-20 20-11.028 0-20-8.971-20-20 0-11.028 8.972-20 20-20zm-.172 8l-10.147 6.153v11.694l2.635 1.553v-11.694l7.515-4.573 7.519 4.566.032.018-.004 11.666 2.61-1.537v-11.693L211.828 144zm1.343 7.199v13.671l-1.343.822-1.344-.826V151.21l-3.48 2.145v11.691l4.824 2.955 4.866-2.976v-11.678l-3.523-2.148zm-162.328 4.8c0 6.79 3.946 12.66 9.67 15.44l-8.185-22.422a17.091 17.091 0 0 0-1.485 6.982zm28.739-.866c0-2.12-.762-3.589-1.415-4.732-.87-1.413-1.685-2.61-1.685-4.023 0-1.577 1.196-3.045 2.88-3.045.077 0 .15.01.223.014A17.093 17.093 0 0 0 68 138.843c-5.994 0-11.268 3.075-14.335 7.733.402.012.782.02 1.104.02 1.794 0 4.572-.217 4.572-.217.925-.055 1.034 1.304.11 1.413 0 0-.93.11-1.963.164l6.247 18.583 3.755-11.26-2.673-7.324c-.924-.054-1.8-.164-1.8-.164-.924-.054-.815-1.467.11-1.413 0 0 2.832.218 4.518.218 1.795 0 4.573-.218 4.573-.218.925-.054 1.034 1.304.11 1.413 0 0-.932.11-1.964.164l6.2 18.443 1.711-5.719c.742-2.373 1.307-4.077 1.307-5.546zM68.3 157.5l-5.148 14.958a17.156 17.156 0 0 0 10.544-.274 1.507 1.507 0 0 1-.122-.236L68.3 157.5zm14.753-9.732c.074.546.115 1.133.115 1.764 0 1.74-.325 3.698-1.304 6.145l-5.24 15.152c5.1-2.974 8.53-8.5 8.53-14.83 0-2.983-.761-5.788-2.101-8.231zM68 136c-11.028 0-20 8.971-20 19.999 0 11.029 8.972 20 20 20 11.027 0 20-8.971 20-20C88 144.97 79.027 136 68 136zm0 39.082c-10.522 0-19.083-8.56-19.083-19.083 0-10.522 8.56-19.082 19.083-19.082 10.52 0 19.081 8.56 19.081 19.082S78.521 175.082 68 175.082zM20 176c11.046 0 20-8.954 20-20s-8.954-20-20-20-20 8.954-20 20 8.954 20 20 20zm1.368-32h1.58l-1.58 9.198h3.844a1.22 1.22 0 0 1 1.045 1.848L18.21 168.42h-1.58l1.58-9.197h-3.844a1.22 1.22 0 0 1-1.045-1.849L21.368 144zM164 136c11.027 0 20 8.972 20 20 0 11.029-8.973 20-20 20-11.028 0-20-8.971-20-20 0-11.028 8.972-20 20-20zm7.146 10.997c-.068-.04-.122-.04-.122-.04l-1.912-.136-1.41-1.397a.514.514 0 0 0-.177-.081l-1.044 20.976 7.35-1.586-2.604-17.587s-.013-.108-.081-.15zm-4.692-1.437c-.312-.922-.746-1.587-1.288-1.967a1.951 1.951 0 0 0-1.329-.366 1.55 1.55 0 0 0-.325-.339c-.529-.42-1.207-.488-2.02-.203-2.428.881-3.472 4.014-3.851 5.6 0 0-1.857.57-2.17.678-.313.108-.502.136-.624.285-.122.149-.149.57-.149.57l-1.79 13.939 13.573 2.549 1.044-20.977a.865.865 0 0 0-.352.014l-.719.217zm-1.681-1.33c.42.299.732.896.935 1.56l-1.139.353v-.244c-.027-.733-.122-1.356-.298-1.858.19.027.353.081.502.19zm-3.363 2.902c.312-1.22.909-2.454 2.048-2.928.23.61.311 1.45.298 2.196l-2.346.732zm.38-3.674c.488-.176.868-.176 1.166.013-1.519.692-2.197 2.441-2.495 3.946l-1.871.583c.42-1.518 1.356-3.878 3.2-4.542zm.556 13.532a4.099 4.099 0 0 0-.705-.745 7.04 7.04 0 0 0-.773-.57 3.8 3.8 0 0 1-.488-.339 2.612 2.612 0 0 1-.34-.325 1.35 1.35 0 0 1-.19-.326.936.936 0 0 1-.053-.339c.013-.162.04-.298.108-.42a.978.978 0 0 1 .258-.326c.108-.094.244-.162.393-.216.15-.055.325-.095.515-.095.204-.014.407 0 .597.013.19.014.38.054.556.095.176.04.339.095.474.15.15.053.271.108.38.162l.908-2.698a2.825 2.825 0 0 0-.488-.19 3.911 3.911 0 0 0-.623-.122 6.343 6.343 0 0 0-.746-.041c-.258 0-.543.014-.827.054a5.218 5.218 0 0 0-1.668.502c-.475.23-.881.542-1.22.908a3.911 3.911 0 0 0-.787 1.234c-.19.461-.298.963-.325 1.52-.014.325.013.636.095.908.067.284.176.542.325.786.136.244.312.461.515.664.204.204.42.394.665.57.19.136.352.271.488.407.135.122.244.257.325.38.082.121.136.257.177.38.04.121.054.257.04.406 0 .135-.04.271-.095.393a.84.84 0 0 1-.596.475c-.136.027-.299.04-.475.013a3.389 3.389 0 0 1-.61-.162c-.19-.082-.393-.163-.57-.272a4.3 4.3 0 0 1-.488-.312c-.149-.108-.27-.203-.38-.284l-.623 2.06c.108.136.23.258.393.394a4.857 4.857 0 0 0 1.18.692c.244.094.488.176.76.244h.053c.556.122 1.112.149 1.614.081a3.233 3.233 0 0 0 1.424-.529c.42-.285.773-.678 1.03-1.193.258-.515.42-1.126.448-1.844a3.393 3.393 0 0 0-.163-1.193 2.873 2.873 0 0 0-.488-.95zM116 176c-11.046 0-20-8.954-20-20s8.954-20 20-20 20 8.954 20 20-8.954 20-20 20zm4.212-12.996c-.396.19-1.154.354-1.718.367-1.704.046-2.035-1.196-2.049-2.098v-6.627h4.275v-3.223h-4.26V146h-3.118c-.05 0-.14.045-.153.159-.183 1.66-.96 4.573-4.189 5.737v2.75h2.155v6.956c0 2.382 1.756 5.765 6.394 5.685 1.565-.027 3.303-.682 3.686-1.247l-1.023-3.036z" fill="url(#a)" fill-rule="nonzero"/>
        <path d="M116 74v54M116 74c0 32 48 30.781 48 54M116 74c0 28 96 30.781 96 54M116 74c0 32-48 30.781-48 54M116 74c0 28-96 30.781-96 54" stroke="#EEE" stroke-width="2" stroke-linecap="round" stroke-dasharray="6,5"/>
        <circle fill="#D8D8D8" cx="20" cy="129" r="3"/>
        <circle fill="#D8D8D8" cx="68" cy="129" r="3"/>
        <circle fill="#D8D8D8" cx="116" cy="129" r="3"/>
        <circle fill="#D8D8D8" cx="116" cy="71" r="3"/>
        <circle fill="#D8D8D8" cx="164" cy="129" r="3"/>
        <circle fill="#D8D8D8" cx="212" cy="129" r="3"/>
        <circle fill="url(#b)" cx="116" cy="32" r="32"/>
        <path d="M118 30v-6h-4v6h-6v4h6v6h4v-6h6v-4h-6zm-14-14h24a4 4 0 0 1 4 4v24a4 4 0 0 1-4 4h-24a4 4 0 0 1-4-4V20a4 4 0 0 1 4-4z" fill="#FFF"/>
    </g>
</svg>
