<svg width="32px" height="32px" viewBox="0 0 32 32" version="1.1" xmlns="http://www.w3.org/2000/svg" xmlns:xlink="http://www.w3.org/1999/xlink">
                                <!-- Generator: Sketch 51 (57462) - http://www.bohemiancoding.com/sketch -->
                                <title>related-posts-tab</title>
                                <desc>Created with Sketch.</desc>
                                <defs/>
                                <g id="Page-1" stroke="none" stroke-width="1" fill="none" fill-rule="evenodd">
                                    <g id="Homepage---desktop" transform="translate(-188.000000, -1289.000000)">
                                        <g id="Group" transform="translate(188.000000, 1289.000000)" fill="#1E1F44">
                                            <g id="Group-35">
                                                <path d="M6.25,5.5 L12.25,5.5 L12.25,11.5 L6.25,11.5 L6.25,5.5 Z M13.75,6.25 L25.75,6.25 L25.75,7.75 L13.75,7.75 L13.75,6.25 Z M13.75,9.25 L24.25,9.25 L24.25,10.75 L13.75,10.75 L13.75,9.25 Z M6.25,13 L12.25,13 L12.25,19 L6.25,19 L6.25,13 Z M13.75,13.75 L25.75,13.75 L25.75,15.25 L13.75,15.25 L13.75,13.75 Z M13.75,16.75 L24.25,16.75 L24.25,18.25 L13.75,18.25 L13.75,16.75 Z M6.25,20.5 L12.25,20.5 L12.25,26.5 L6.25,26.5 L6.25,20.5 Z M13.75,21.25 L25.75,21.25 L25.75,22.75 L13.75,22.75 L13.75,21.25 Z M13.75,24.25 L24.25,24.25 L24.25,25.75 L13.75,25.75 L13.75,24.25 Z" id="Combined-Shape"/>
                                            </g>
                                        </g>
                                    </g>
                                </g>
                            </svg>