<svg width="32px" height="32px" viewBox="0 0 32 32" version="1.1" xmlns="http://www.w3.org/2000/svg" xmlns:xlink="http://www.w3.org/1999/xlink">
                                <!-- Generator: Sketch 51 (57462) - http://www.bohemiancoding.com/sketch -->
                                <title>share-tab</title>
                                <desc>Created with Sketch.</desc>
                                <defs/>
                                <g id="Page-1" stroke="none" stroke-width="1" fill="none" fill-rule="evenodd">
                                    <g id="Homepage---desktop" transform="translate(-56.000000, -1033.000000)">
                                        <g id="Group-32" transform="translate(56.000000, 1033.000000)" fill="#1E1F44">
                                            <path d="M26.875496,13.8736111 L20.5262897,20.2736111 C20.3692122,20.4319452 20.1832021,20.5111111 19.968254,20.5111111 C19.7533058,20.5111111 19.5672958,20.4319452 19.4102183,20.2736111 C19.2531407,20.115277 19.1746032,19.9277789 19.1746032,19.7111111 L19.1746032,16.5111111 L16.3968254,16.5111111 C15.5866362,16.5111111 14.861197,16.5361109 14.2204861,16.5861111 C13.5797752,16.6361114 12.9432075,16.7256938 12.3107639,16.8548611 C11.6783203,16.9840284 11.1285572,17.16111 10.6614583,17.3861111 C10.1943594,17.6111122 9.75826922,17.9006927 9.3531746,18.2548611 C8.94807999,18.6090295 8.61739546,19.0298587 8.36111111,19.5173611 C8.10482676,20.0048635 7.90434927,20.5819411 7.75967262,21.2486111 C7.61499597,21.9152811 7.54265873,22.6694402 7.54265873,23.5111111 C7.54265873,23.9694467 7.56332651,24.4819416 7.6046627,25.0486111 C7.6046627,25.0986114 7.61499659,25.196527 7.63566468,25.3423611 C7.65633278,25.4881952 7.66666667,25.5986107 7.66666667,25.6736111 C7.66666667,25.7986117 7.63153144,25.9027774 7.56125992,25.9861111 C7.49098841,26.0694449 7.39384983,26.1111111 7.26984127,26.1111111 C7.13756548,26.1111111 7.02182589,26.0402785 6.92261905,25.8986111 C6.86474839,25.8236107 6.81101215,25.731945 6.76140873,25.6236111 C6.71180531,25.5152772 6.65600229,25.3902785 6.59399802,25.2486111 C6.53199374,25.1069437 6.48859139,25.0069447 6.46378968,24.9486111 C5.41385057,22.5735992 4.88888889,20.6944514 4.88888889,19.3111111 C4.88888889,17.6527695 5.10796739,16.2652834 5.54613095,15.1486111 C6.88542336,11.790261 10.5022853,10.1111111 16.3968254,10.1111111 L19.1746032,10.1111111 L19.1746032,6.91111111 C19.1746032,6.69444336 19.2531407,6.50694524 19.4102183,6.34861111 C19.5672958,6.19027699 19.7533058,6.11111111 19.968254,6.11111111 C20.1832021,6.11111111 20.3692122,6.19027699 20.5262897,6.34861111 L26.875496,12.7486111 C27.0325735,12.9069452 27.1111111,13.0944434 27.1111111,13.3111111 C27.1111111,13.3111111 27.0325735,13.715277 26.875496,13.8736111 Z" id="Type-something-Copy"/>
                                        </g>
                                    </g>
                                </g>
                            </svg>