<svg width="264" height="160" xmlns="http://www.w3.org/2000/svg" xmlns:xlink="http://www.w3.org/1999/xlink">
    <defs>
        <path d="M0 0h59.998v8a2 2 0 0 1-2 2H2a2 2 0 0 1-2-2V0z" id="a"/>
    </defs>
    <g fill="none" fill-rule="evenodd">
        <rect fill="#DDD" x="200" width="64" height="160" rx="8"/>
        <rect fill="#BFBFBF" x="216" y="151" width="32" height="2" rx="1"/>
        <rect fill="#DDD" width="192" height="160" rx="4"/>
        <path d="M4 14h184a2 2 0 0 1 2 2v140a2 2 0 0 1-2 2H4a2 2 0 0 1-2-2V16a2 2 0 0 1 2-2z" fill="#FFF"/>
        <rect fill="#FFF" x="202" y="16" width="60" height="128" rx="2"/>
        <path d="M210 36a4 4 0 1 1 0-8 4 4 0 0 1 0 8zm8-6h31v4h-31v-4zm-12 11h52v8h-52v-8zm0 12h36v8h-36v-8zm0 36h52v4h-52v-4zm0 8h48v4h-48v-4zm0 8h52v4h-52v-4zm0 8h48v4h-48v-4zm0 8h52v4h-52v-4zm0 8h48v4h-48v-4z" fill="#EEE"/>
        <rect fill="#BFBFBF" x="216" y="9" width="32" height="2" rx="1"/>
        <rect fill="#BFBFBF" x="228" y="4" width="8" height="2" rx="1"/>
        <circle fill="#BFBFBF" cx="7" cy="7" r="2"/>
        <circle fill="#BFBFBF" cx="13" cy="7" r="2"/>
        <circle fill="#BFBFBF" cx="19" cy="7" r="2"/>
        <path d="M49 44a8 8 0 1 1 0-16 8 8 0 0 1 0 16zm16-12h39v8H65v-8zM41 57h87v10H41V57zm0 16h71v10H41V73zm0 54h111v4H41v-4zm0 8h103v4H41v-4zm0 8h111v4H41v-4zm0 8h103v4H41v-4z" fill="#EEE"/>
        <g>
            <path d="M48.511 111.45c-.21-.066-.394-.1-.554-.1a.776.776 0 0 0-.423.1.314.314 0 0 0-.156.28c0 .107.036.197.108.27a.849.849 0 0 0 .273.178c.11.046.26.097.449.153.263.078.48.156.649.234.169.078.312.193.431.345.12.152.179.353.179.602 0 .237-.064.444-.193.62a1.204 1.204 0 0 1-.529.405c-.224.093-.482.139-.771.139-.305 0-.602-.057-.892-.17a2.531 2.531 0 0 1-.757-.454l.312-.635c.197.182.418.325.663.429.245.104.473.156.685.156.208 0 .371-.04.49-.12a.373.373 0 0 0 .178-.326.374.374 0 0 0-.108-.275.808.808 0 0 0-.276-.176 5.07 5.07 0 0 0-.457-.15 5.41 5.41 0 0 1-.646-.229 1.123 1.123 0 0 1-.429-.337c-.119-.15-.178-.348-.178-.593 0-.226.06-.424.18-.593.122-.17.292-.3.513-.393.221-.093.477-.14.766-.14.253 0 .503.038.75.112.246.075.466.175.66.301l-.301.652a2.822 2.822 0 0 0-.616-.284zm4.27.483c.197.206.295.485.295.838v1.86h-.73v-1.648c0-.208-.059-.373-.178-.493-.119-.121-.28-.181-.484-.181a.743.743 0 0 0-.574.245.891.891 0 0 0-.212.612v1.465h-.724v-4.133h.724v1.721c.204-.39.563-.588 1.075-.596.342 0 .611.103.808.31zm2.869 2.698v-.362a.976.976 0 0 1-.401.296c-.164.066-.351.1-.563.1a1.2 1.2 0 0 1-.549-.12.879.879 0 0 1-.493-.805c0-.278.099-.497.296-.654.196-.158.475-.239.835-.243h.87v-.078a.502.502 0 0 0-.174-.406c-.115-.097-.282-.145-.5-.145-.283 0-.578.093-.887.278l-.261-.5c.234-.13.446-.225.637-.282.192-.058.415-.087.672-.087.386 0 .686.093.9.279.213.186.321.446.325.78l.006 1.95h-.713zm-.257-.67c.149-.1.233-.22.251-.366v-.267h-.752c-.193 0-.335.029-.426.086-.091.058-.136.152-.136.282 0 .126.047.226.142.3a.611.611 0 0 0 .387.112c.208 0 .386-.05.534-.148zm2.917-2.179c.172-.102.374-.155.604-.159v.702c-.308-.018-.554.053-.738.215-.184.161-.276.38-.276.654v1.437h-.724v-2.98h.724v.574c.1-.193.237-.34.41-.443zm3.425.254c.24.27.36.651.36 1.142 0 .096-.002.169-.006.217h-2.2a.861.861 0 0 0 .298.498c.15.121.335.181.554.181.152 0 .298-.028.437-.086.14-.058.261-.14.365-.248l.39.407c-.148.163-.33.29-.543.379-.213.089-.45.133-.71.133-.305 0-.573-.063-.805-.19a1.324 1.324 0 0 1-.538-.531 1.602 1.602 0 0 1-.19-.788c0-.297.065-.561.193-.791.128-.23.307-.41.538-.538.23-.128.492-.192.785-.192.475 0 .833.136 1.072.407zm-.303.874a.722.722 0 0 0-.217-.523c-.138-.13-.32-.195-.546-.195a.768.768 0 0 0-.532.192.849.849 0 0 0-.265.526h1.56zm2.604-.652a1.434 1.434 0 0 0-.426-.072.574.574 0 0 0-.293.064.214.214 0 0 0-.108.198c0 .093.045.164.136.214.091.05.235.103.432.16.208.062.379.124.512.186.134.06.25.152.349.273a.73.73 0 0 1 .147.476c0 .29-.111.512-.334.668-.223.156-.503.234-.841.234-.23 0-.455-.036-.674-.108a1.587 1.587 0 0 1-.557-.31l.25-.506c.134.115.294.205.48.27.185.065.362.097.529.097.133 0 .24-.023.32-.07a.227.227 0 0 0 .12-.208.252.252 0 0 0-.14-.234 2.46 2.46 0 0 0-.45-.173c-.201-.06-.365-.118-.49-.175a.887.887 0 0 1-.33-.262.717.717 0 0 1-.139-.46c0-.293.107-.517.32-.671.214-.154.482-.231.805-.231.197 0 .391.028.583.083.19.056.36.134.51.234l-.263.524a2.14 2.14 0 0 0-.448-.2zM49.853 105.62v1.8H41.88v-1.492l4.064-4.187c.39-.39.703-.774.939-1.154.236-.38.354-.708.354-.985 0-.39-.154-.695-.462-.916-.308-.22-.734-.331-1.278-.331-.472 0-.974.118-1.508.354a5.778 5.778 0 0 0-1.508.985l-.816-1.585a7.977 7.977 0 0 1 2.008-1.147 5.827 5.827 0 0 1 2.117-.408c.708 0 1.334.113 1.878.339.543.225.967.546 1.27.962.302.415.454.895.454 1.439 0 .523-.18 1.077-.54 1.662-.358.585-.861 1.216-1.508 1.893l-2.74 2.771h5.25zm7.527-4.618c.616.277 1.09.665 1.424 1.163.333.497.5 1.059.5 1.685 0 .729-.174 1.37-.523 1.924-.35.554-.842.982-1.478 1.285-.636.303-1.375.454-2.216.454a7.042 7.042 0 0 1-2.117-.346 7.206 7.206 0 0 1-1.947-.931l.816-1.616c.462.359.954.638 1.478.838.523.2 1.046.3 1.57.3.677 0 1.213-.156 1.608-.469.395-.313.593-.741.593-1.285 0-.523-.195-.929-.585-1.216-.39-.287-.97-.431-1.74-.431-.369 0-.856.013-1.462.038-.605.026-1.072.054-1.4.085v-5.834h6.926v1.801h-5.018v2.14h1.432c.81 0 1.523.138 2.139.415zm9.358 6.419l-2.231-3.602-1.263 1.324v2.278h-2V96h2v6.619l3.387-3.417h2.308l-3.047 3.17 3.232 5.049h-2.386z" fill="#878787"/>
            <path fill="#3B5998" d="M76.875 99.107h37.28v12.427h-37.28z"/>
            <path fill="#1DA1F2" d="M117.263 99.107h31.068v12.427h-31.068z"/>
            <path d="M89.636 104.155h1.875l-.004.455h-1.351v.734h1.231v.454h-1.231v1.076h-.52v-2.719zm3.471 2.719v-.253a.68.68 0 0 1-.28.206 1.03 1.03 0 0 1-.391.07.836.836 0 0 1-.383-.084.612.612 0 0 1-.344-.56c0-.195.069-.347.206-.457.137-.11.332-.166.583-.169h.606v-.054a.35.35 0 0 0-.12-.284c-.081-.067-.198-.1-.35-.1a1.2 1.2 0 0 0-.618.193l-.182-.35c.163-.09.311-.155.444-.195.134-.04.29-.06.468-.06.27 0 .479.064.627.194.15.13.225.31.228.543l.004 1.36h-.498zm-.178-.468c.103-.069.162-.154.175-.255v-.186h-.525a.57.57 0 0 0-.297.06c-.063.04-.095.106-.095.196 0 .088.033.158.1.21a.426.426 0 0 0 .269.078.66.66 0 0 0 .373-.103zm2.128-1.183a.531.531 0 0 0-.41.171.628.628 0 0 0-.157.443c0 .186.052.336.157.45.105.114.242.171.41.171.248 0 .435-.081.56-.245l.314.26a.919.919 0 0 1-.37.311c-.152.073-.33.11-.531.11-.205 0-.387-.045-.546-.133a.93.93 0 0 1-.37-.37 1.117 1.117 0 0 1-.133-.55c0-.21.045-.395.134-.556a.94.94 0 0 1 .373-.372c.16-.089.342-.133.55-.133.188 0 .357.033.506.1.15.066.27.16.363.281l-.306.291a.703.703 0 0 0-.544-.229zm2.918-.159c.167.189.25.454.25.796 0 .067 0 .118-.003.152h-1.534a.6.6 0 0 0 .208.347.598.598 0 0 0 .386.126.79.79 0 0 0 .56-.233l.271.284c-.103.114-.23.202-.378.264a1.273 1.273 0 0 1-.496.093c-.212 0-.399-.044-.56-.132a.923.923 0 0 1-.376-.37 1.117 1.117 0 0 1-.132-.55c0-.207.045-.391.134-.552a.949.949 0 0 1 .375-.375c.16-.089.343-.134.548-.134.331 0 .58.095.747.284zm-.211.61a.504.504 0 0 0-.152-.365.531.531 0 0 0-.38-.136.535.535 0 0 0-.371.134.592.592 0 0 0-.185.367h1.088zm2.635-.76c.148.09.264.215.345.375.082.16.123.346.123.556 0 .207-.04.39-.12.547a.888.888 0 0 1-.343.369.981.981 0 0 1-.512.132.893.893 0 0 1-.412-.091.775.775 0 0 1-.295-.266v.338h-.505v-2.882h.505v1.146a.75.75 0 0 1 .29-.266.88.88 0 0 1 .409-.092.98.98 0 0 1 .515.134zm-.208 1.367a.64.64 0 0 0 .163-.452.634.634 0 0 0-.163-.45.548.548 0 0 0-.42-.175.553.553 0 0 0-.423.175.634.634 0 0 0-.163.45.64.64 0 0 0 .163.454c.109.117.25.175.423.175.171 0 .311-.059.42-.177zm2.592-1.368a.956.956 0 0 1 .384.37c.092.16.138.343.138.55 0 .21-.046.395-.138.555a.952.952 0 0 1-.384.373 1.187 1.187 0 0 1-.569.132c-.217 0-.409-.044-.575-.132a.949.949 0 0 1-.386-.373 1.098 1.098 0 0 1-.138-.555c0-.207.046-.39.138-.55a.952.952 0 0 1 .386-.37c.166-.089.358-.133.575-.133.215 0 .405.044.569.133zm-.996.473a.64.64 0 0 0-.163.455.64.64 0 0 0 .163.454.557.557 0 0 0 .427.175c.171 0 .31-.058.42-.175a.64.64 0 0 0 .163-.454.64.64 0 0 0-.163-.455.548.548 0 0 0-.42-.174.557.557 0 0 0-.427.174zm3.435-.473a.956.956 0 0 1 .384.37c.092.16.138.343.138.55 0 .21-.046.395-.138.555a.952.952 0 0 1-.384.373 1.187 1.187 0 0 1-.57.132c-.217 0-.408-.044-.574-.132a.949.949 0 0 1-.386-.373 1.098 1.098 0 0 1-.138-.555c0-.207.046-.39.138-.55a.952.952 0 0 1 .386-.37c.166-.089.357-.133.575-.133.215 0 .404.044.569.133zm-.996.473a.64.64 0 0 0-.163.455.64.64 0 0 0 .163.454.557.557 0 0 0 .427.175c.17 0 .31-.058.42-.175a.64.64 0 0 0 .162-.454.64.64 0 0 0-.163-.455.548.548 0 0 0-.42-.174.557.557 0 0 0-.426.174zm3.363 1.488l-.563-.91-.319.335v.575h-.505v-2.882h.505v1.67l.855-.862h.582l-.769.8.816 1.274h-.602zm-22.947-4.36v.903h-.612c-.48 0-.569.202-.569.493v.647h1.142l-.152 1.013h-.99v2.598H82.27v-2.598h-.993v-1.013h.993v-.746c0-.866.604-1.339 1.484-1.339.421 0 .783.028.889.041zm41.94 1.283c-.157.234-.355.44-.583.605l.003.15c0 1.545-1.175 3.325-3.324 3.325-.66 0-1.274-.193-1.791-.525a2.344 2.344 0 0 0 1.73-.484 1.17 1.17 0 0 1-1.092-.811 1.167 1.167 0 0 0 .528-.02 1.169 1.169 0 0 1-.937-1.146v-.014c.157.087.337.14.529.146a1.168 1.168 0 0 1-.362-1.56 3.317 3.317 0 0 0 2.409 1.22 1.168 1.168 0 0 1 1.99-1.066 2.34 2.34 0 0 0 .742-.282 1.172 1.172 0 0 1-.513.646c.236-.028.461-.091.67-.184zm3.139.358h2.217v.462h-.847v2.257h-.524v-2.257h-.846v-.462zm2.248.645l.52-.004.51 1.569.492-1.569h.51l.5 1.569.497-1.569h.509l-.754 2.078h-.516l-.497-1.464-.493 1.464h-.517l-.761-2.074zm3.833-.004h.505v2.078h-.505v-2.078zm.454-.808c.055.057.082.13.082.218a.297.297 0 0 1-.082.213.272.272 0 0 1-.205.086.272.272 0 0 1-.206-.086.297.297 0 0 1-.082-.213c0-.088.027-.16.082-.218a.272.272 0 0 1 .206-.085c.082 0 .151.028.205.085zm1.892 2.757a.985.985 0 0 1-.52.152.623.623 0 0 1-.44-.157c-.114-.105-.17-.26-.17-.464v-1.026h-.292l-.004-.369h.296v-.57h.5v.57h.595v.37h-.595v.935c0 .096.019.164.055.204.036.04.09.06.163.06a.724.724 0 0 0 .295-.085l.117.38zm1.611 0a.985.985 0 0 1-.52.152.623.623 0 0 1-.439-.157c-.114-.105-.17-.26-.17-.464v-1.026h-.292l-.004-.369h.295v-.57h.501v.57h.594v.37h-.594v.935c0 .096.018.164.054.204.037.04.091.06.164.06a.724.724 0 0 0 .295-.085l.116.38zm2.01-1.681c.167.189.25.454.25.796 0 .067 0 .118-.003.152h-1.534a.6.6 0 0 0 .207.347.598.598 0 0 0 .387.126.79.79 0 0 0 .559-.233l.272.284c-.104.114-.23.202-.379.264a1.273 1.273 0 0 1-.495.093c-.212 0-.4-.044-.561-.132a.923.923 0 0 1-.375-.37 1.117 1.117 0 0 1-.132-.55c0-.207.045-.391.134-.552a.949.949 0 0 1 .375-.375c.16-.089.343-.134.547-.134.332 0 .58.095.748.284zm-.212.61a.504.504 0 0 0-.151-.365.531.531 0 0 0-.38-.136.535.535 0 0 0-.372.134.592.592 0 0 0-.184.367h1.087zm1.688-.787a.84.84 0 0 1 .421-.11v.489c-.215-.013-.386.037-.515.15a.577.577 0 0 0-.192.456v1.002h-.505v-2.078h.505v.4a.75.75 0 0 1 .286-.309z" fill="#FFF"/>
        </g>
        <g>
            <path fill="#FF6550" d="M234 69h12v12h-12z"/>
            <path d="M240.5 74.5h1.5v1h-1.5V77h-1v-1.5H238v-1h1.5V73h1v1.5z" fill="#FFF"/>
            <path fill="#3B5998" d="M206 69h12v12h-12z"/>
            <path d="M213.5 72.29a8.377 8.377 0 0 0-.858-.04c-.85 0-1.433.456-1.433 1.292v.72h-.96v.98h.96v2.508h1.151V75.24h.956l.146-.978h-1.102v-.625c0-.28.087-.476.55-.476h.59v-.872z" fill="#FFF"/>
            <g>
                <path fill="#1DA1F2" d="M220 69h12v12h-12z"/>
                <path d="M228.998 73.529c-.202.09-.42.15-.648.178.233-.14.412-.361.497-.625a2.26 2.26 0 0 1-.717.274 1.128 1.128 0 0 0-1.922 1.029 3.203 3.203 0 0 1-2.326-1.179 1.128 1.128 0 0 0 .35 1.506 1.124 1.124 0 0 1-.511-.14v.014c0 .546.388 1.002.904 1.106a1.13 1.13 0 0 1-.509.02c.144.447.56.774 1.054.783a2.264 2.264 0 0 1-1.67.467c.499.32 1.092.507 1.729.507 2.075 0 3.21-1.72 3.21-3.21 0-.05-.001-.098-.003-.146.22-.16.411-.358.562-.584" fill="#FFF"/>
            </g>
        </g>
        <g>
            <path fill="#FF6550" d="M2 81.998h11.999v11.999H2z"/>
            <path d="M8.5 87.498H10v1H8.5v1.5h-1v-1.5H6v-1h1.5v-1.5h1v1.5z" fill="#FFF"/>
            <path fill="#0077B5" d="M2 69.998h11.999v12H2z"/>
            <path d="M10.5 78.489H9.453v-1.637c0-.39-.006-.893-.543-.893-.545 0-.628.425-.628.865v1.665H7.237v-3.367H8.24v.46h.014c.14-.264.481-.543.99-.543 1.06 0 1.256.697 1.256 1.603v1.847zm-4.443-3.827a.607.607 0 1 1-.001-1.213.607.607 0 0 1 .001 1.213zm-.524.46H6.58v3.367H5.533v-3.367z" fill="#FFF"/>
            <path fill="#3B5998" d="M2 34h11.999v11.999H2z"/>
            <path d="M9.5 37.29a8.377 8.377 0 0 0-.858-.04c-.85 0-1.433.456-1.433 1.292v.72h-.96v.979h.96v2.509H8.36V40.24h.955l.147-.978H8.36v-.625c0-.28.086-.476.55-.476h.59v-.872z" fill="#FFF"/>
            <g>
                <path fill="#1DA1F2" d="M2 46h11.999v11.998H2z"/>
                <path d="M10.999 50.528c-.203.09-.42.15-.648.178.233-.14.411-.36.496-.624a2.26 2.26 0 0 1-.717.274 1.128 1.128 0 0 0-1.922 1.029 3.203 3.203 0 0 1-2.325-1.18 1.128 1.128 0 0 0 .35 1.506 1.124 1.124 0 0 1-.512-.14v.014c0 .547.389 1.003.905 1.106a1.13 1.13 0 0 1-.51.02c.144.448.56.774 1.054.783a2.264 2.264 0 0 1-1.67.467c.5.32 1.092.507 1.73.507 2.074 0 3.209-1.719 3.209-3.21 0-.049-.001-.097-.003-.146.22-.159.411-.357.563-.584" fill="#FFF"/>
            </g>
            <g>
                <path fill="#FF5700" d="M2 57.999h11.999v11.999H2z"/>
                <path d="M10.75 63.874a.613.613 0 0 1-.335.552c.025.095.037.194.037.298 0 .32-.109.617-.327.89a2.205 2.205 0 0 1-.891.647 3.136 3.136 0 0 1-1.228.238c-.442 0-.85-.08-1.226-.238a2.207 2.207 0 0 1-.89-.647 1.398 1.398 0 0 1-.327-.89c0-.097.011-.195.034-.292a.617.617 0 0 1-.347-.558.6.6 0 0 1 .178-.436.583.583 0 0 1 .433-.182.59.59 0 0 1 .445.196c.446-.315.973-.482 1.58-.503l.356-1.616a.105.105 0 0 1 .046-.066.1.1 0 0 1 .08-.015l1.133.251a.441.441 0 0 1 .165-.184.445.445 0 0 1 .243-.07c.127 0 .235.045.325.135.09.09.135.199.135.327a.45.45 0 0 1-.135.329.441.441 0 0 1-.325.137.439.439 0 0 1-.324-.135.448.448 0 0 1-.134-.328l-1.025-.23-.319 1.465c.614.019 1.145.184 1.593.497a.579.579 0 0 1 .439-.19c.17 0 .314.06.433.182a.6.6 0 0 1 .178.436zm-4.217.617c0 .128.044.238.133.33a.436.436 0 0 0 .324.136.441.441 0 0 0 .325-.137.45.45 0 0 0 .135-.329.446.446 0 0 0-.135-.327.444.444 0 0 0-.325-.135.438.438 0 0 0-.322.136.447.447 0 0 0-.135.326zm2.486 1.102a.11.11 0 0 0 .033-.081.11.11 0 0 0-.11-.112c-.03 0-.057.01-.08.031a.765.765 0 0 1-.371.193 1.997 1.997 0 0 1-.982 0 .765.765 0 0 1-.372-.193.114.114 0 0 0-.08-.03c-.03 0-.056.01-.076.03a.103.103 0 0 0-.034.08c0 .031.011.059.034.082.088.089.209.159.364.21.154.052.28.083.375.092a2.9 2.9 0 0 0 .559 0c.096-.01.222-.04.376-.091a.907.907 0 0 0 .364-.211zm-.01-.636a.436.436 0 0 0 .324-.137.453.453 0 0 0 .134-.329.447.447 0 0 0-.135-.326.438.438 0 0 0-.323-.136.444.444 0 0 0-.325.135c-.09.09-.135.199-.135.327a.45.45 0 0 0 .135.33c.09.09.199.136.325.136z" fill="#FFF"/>
            </g>
        </g>
        <g transform="translate(202 134)">
            <mask id="b" fill="#fff">
                <use xlink:href="#a"/>
            </mask>
            <g mask="url(#b)">
                <path fill="#2DC100" d="M35.999 0h12v10h-12z"/>
                <path d="M43.167 3.704c-.557.03-1.04.198-1.434.58-.397.386-.579.86-.53 1.446-.217-.027-.415-.057-.614-.074a.382.382 0 0 0-.21.036c-.193.109-.379.233-.599.37.04-.183.067-.343.113-.497.034-.113.018-.176-.086-.25-.668-.473-.95-1.18-.74-1.909.196-.673.675-1.082 1.326-1.295.889-.291 1.888.006 2.428.712.195.256.315.542.346.881zm1.252 3.478c-.177-.079-.338-.197-.51-.215-.172-.018-.353.081-.532.1a1.774 1.774 0 0 1-1.44-.471c-.769-.712-.66-1.803.23-2.386.79-.519 1.948-.346 2.505.373.486.628.429 1.461-.164 1.988-.172.153-.234.279-.124.48.02.037.023.084.035.13zm-3.815-3.705a.257.257 0 0 0-.247-.257.25.25 0 0 0-.26.241.247.247 0 0 0 .245.256.254.254 0 0 0 .262-.24zm1.338-.257a.257.257 0 0 0-.252.253.25.25 0 0 0 .258.246.246.246 0 0 0 .248-.253.248.248 0 0 0-.254-.246zm.47 2.015a.208.208 0 1 0 0-.416c-.116 0-.213.1-.21.216.005.11.098.2.21.2zm1.293-.415a.208.208 0 0 0-.206.199.204.204 0 0 0 .204.215.202.202 0 0 0 .205-.198.206.206 0 0 0-.203-.216z" fill="#FFF"/>
                <path fill="#FF6550" d="M47.998 0h12v10h-12z"/>
                <path d="M54.498 4.5h1.5v1h-1.5V7h-1V5.5h-1.5v-1h1.5V3h1v1.5z" fill="#FFF"/>
                <path fill="#0084FF" d="M12 0h12v10H12z"/>
                <path d="M18 2c-1.657 0-3 1.244-3 2.778 0 .874.436 1.654 1.118 2.163V8l1.021-.56c.273.075.562.116.86.116 1.657 0 3-1.244 3-2.778S19.657 2 18 2zm.298 3.74l-.764-.814-1.49.815L17.682 4l.782.815L19.938 4l-1.64 1.74z" fill="#FFF"/>
                <g>
                    <path fill="#1DA1F2" d="M0 0h12v10H0z"/>
                    <path d="M9 3.577c-.22.098-.458.164-.707.194.254-.152.45-.394.541-.681a2.465 2.465 0 0 1-.781.299 1.231 1.231 0 0 0-2.098 1.123 3.495 3.495 0 0 1-2.537-1.287 1.23 1.23 0 0 0 .381 1.643 1.226 1.226 0 0 1-.558-.153v.015c0 .597.424 1.094.987 1.207a1.233 1.233 0 0 1-.555.021c.156.49.61.845 1.15.855A2.47 2.47 0 0 1 3 7.323c.545.35 1.192.553 1.887.553 2.264 0 3.502-1.876 3.502-3.502a3.55 3.55 0 0 0-.003-.16c.24-.173.449-.39.614-.637" fill="#FFF"/>
                </g>
                <g>
                    <path fill="#1ECE8E" d="M24 0h12v10H24z"/>
                    <path d="M31.363 6.864h1.093c.3 0 .543-.244.543-.544V3.044c0-.3-.243-.544-.543-.544h-4.914c-.3 0-.543.243-.543.544V6.32c0 .3.243.544.543.544h2.609l.85.955c.198.224.362.164.362-.136v-.82zm-2.86-2.955c.099.03.186.07.263.121l-.113.24a1.059 1.059 0 0 0-.25-.113.79.79 0 0 0-.223-.038.36.36 0 0 0-.193.044.14.14 0 0 0-.07.125c0 .048.016.088.046.12s.069.058.115.078c.046.02.11.04.194.065.11.032.198.064.267.096a.467.467 0 0 1 .176.14.385.385 0 0 1 .072.244.408.408 0 0 1-.078.247.495.495 0 0 1-.215.164.816.816 0 0 1-.316.058 1.002 1.002 0 0 1-.66-.256l.118-.236a.929.929 0 0 0 .268.174c.098.041.19.062.278.062.096 0 .17-.017.223-.052a.163.163 0 0 0 .08-.144c0-.05-.017-.09-.048-.123a.33.33 0 0 0-.118-.076 2.632 2.632 0 0 0-.194-.065c-.11-.032-.2-.064-.267-.094a.477.477 0 0 1-.173-.136.369.369 0 0 1-.073-.24c0-.09.025-.17.074-.238a.47.47 0 0 1 .207-.157.797.797 0 0 1 .307-.055c.104 0 .205.015.303.045zm2.109 1.582l-.002-1.207-.51 1.038h-.179l-.509-1.038V5.49h-.257V3.875h.323l.533 1.074.531-1.074h.321V5.49h-.251zm1.562-1.582c.099.03.186.07.263.121l-.113.24a1.059 1.059 0 0 0-.25-.113.79.79 0 0 0-.223-.038.36.36 0 0 0-.193.044.14.14 0 0 0-.07.125c0 .048.015.088.046.12.03.032.069.058.115.078.046.02.11.04.194.065.11.032.198.064.267.096a.467.467 0 0 1 .175.14.385.385 0 0 1 .073.244.408.408 0 0 1-.078.247.495.495 0 0 1-.215.164.816.816 0 0 1-.316.058 1.002 1.002 0 0 1-.66-.256l.118-.236a.929.929 0 0 0 .268.174c.098.041.19.062.278.062.095 0 .17-.017.223-.052a.163.163 0 0 0 .079-.144c0-.05-.016-.09-.047-.123a.33.33 0 0 0-.118-.076 2.632 2.632 0 0 0-.194-.065c-.11-.032-.2-.064-.267-.094a.477.477 0 0 1-.173-.136.369.369 0 0 1-.073-.24c0-.09.025-.17.074-.238a.47.47 0 0 1 .206-.157.797.797 0 0 1 .308-.055c.104 0 .205.015.303.045z" fill="#FFF"/>
                </g>
            </g>
        </g>
    </g>
</svg>
