<svg width="32px" height="32px" viewBox="0 0 32 32" version="1.1" xmlns="http://www.w3.org/2000/svg" xmlns:xlink="http://www.w3.org/1999/xlink">
                                <!-- Generator: Sketch 51 (57462) - http://www.bohemiancoding.com/sketch -->
                                <title>link-promotion-tab</title>
                                <desc>Created with Sketch.</desc>
                                <defs/>
                                <g id="Page-1" stroke="none" stroke-width="1" fill="none" fill-rule="evenodd">
                                    <g id="Homepage---desktop" transform="translate(-188.000000, -1161.000000)">
                                        <g id="Group-33" transform="translate(188.000000, 1161.000000)" fill="#1E1F44" fill-rule="nonzero">
                                            <g id="Group-3" transform="translate(4.000000, 7.000000)">
                                                <path d="M2.05555556,7.30416176 L2.05555556,10.1479117 L2.05555556,10.4986869 L2.38539203,10.6180652 L20.7187254,17.2534817 L21.3888889,17.4960352 L21.3888889,16.7833282 L21.3888889,1.61666192 L21.3888889,0.938040657 L20.7407405,1.13911396 L2.40740716,6.8266138 L2.05555556,6.93576776 L2.05555556,7.30416176 L2.05555556,7.30416176 L2.05555556,7.30416176 L2.05555556,7.30416176 Z M20.3888889,16.7799378 C20.3888889,17.5988318 21.1264291,18.2277773 22,18.2277773 C22.8735709,18.2277773 23.6111111,17.5988318 23.6111111,16.7799378 L23.6111111,1.61450614 C23.6111111,0.79561218 22.8735709,0.166666667 22,0.166666667 C21.1264291,0.166666667 20.3888889,0.79561218 20.3888889,1.61450614 L20.3888889,16.7799378 L20.3888889,16.7799378 L20.3888889,16.7799378 Z M0.388888889,10.1443605 C0.388888889,10.9307251 0.970637073,11.5921382 1.72222222,11.5921382 C2.47380737,11.5921382 3.05555556,10.9307251 3.05555556,10.1443605 L3.05555556,7.30102722 C3.05555556,6.51466259 2.47380737,5.85324948 1.72222222,5.85324948 C0.970637073,5.85324948 0.388888889,6.51466259 0.388888889,7.30102722 L0.388888889,10.1443605 L0.388888889,10.1443605 L0.388888889,10.1443605 Z M11.6886446,13.5733676 L11.2988298,14.7656545 C11.105592,15.3600239 10.487925,15.6759409 9.91663073,15.4809103 L7.99742014,14.8246638 C7.42220854,14.6277524 7.10841768,13.9833293 7.30364124,13.384177 L7.69363296,12.2911884 L6.75173741,11.9552826 L6.35729296,13.0613229 C5.98965459,14.1890123 6.57709267,15.3954167 7.67370977,15.77082 L9.5933206,16.4272034 C10.6968242,16.8039216 11.8853117,16.1960481 12.2495753,15.0756258 L12.6391332,13.8841272 L11.6886446,13.5733676 L11.6886446,13.5733676 Z" id="Combined-Shape"/>
                                            </g>
                                        </g>
                                    </g>
                                </g>
                            </svg>